<svg xmlns="http://www.w3.org/2000/svg" width="71" height="71"><path fill="#999" d="M50 28h1V10.3L24.9 0v.9L50 11v17zm1 14h-3v3h3v-3zm-8 8h-3v3h3v-3zm16-16h-3v3h3v-3zm-16 8h-3v3h3v-3zm22 27h-1V28H36V8H24.9V0h-.8v8H8v61H7l-7 2h71l-6-2zm-39 0H16V57h10v12zm3-17H13v-1h16v1zm0-6H13v-1h16v1zm0-6H13v-1h16v1zm0-6H13v-1h16v1zm0-6H13v-1h16v1zm0-6H13v-1h16v1zm0-5H13v-1h16v1zm34 52h-4V58h-3v11h-5V58h-3v11h-5V58h-3v11h-4V29h27v40zM51 50h-3v3h3v-3zm8-8h-3v3h3v-3zm0 8h-3v3h3v-3zm-8-16h-3v3h3v-3zm-8 0h-3v3h3v-3z"/></svg>