<svg version="1.1" id="Layer_1" xmlns="http://www.w3.org/2000/svg" x="0" y="0" width="406" height="500" xml:space="preserve"><style>.st1{fill:#5697d0}.st5{opacity:.9}.st6{fill:#fff}.st10,.st12{fill:none;stroke:#000;stroke-miterlimit:10}.st12{stroke-width:1.0474}.st13{fill:#ffcf57}.st14{fill:#ffc935}.st16{fill:#ffd255}.st21{fill:#dba10e}.st24{fill:#5c8791}.st25{fill:#466f75}.st26{fill:#f2f2f2}.st31{fill:#4da4f9}.st33,.st34{fill:none}.st34{stroke:#fff;stroke-width:2;stroke-linecap:round;stroke-linejoin:round}.st37{fill-rule:evenodd;clip-rule:evenodd}.st38{stroke:#fff;stroke-width:1.3716}.st38,.st45,.st47,.st48{fill:none;stroke-miterlimit:10}.st45{stroke:#fff}.st47,.st48{stroke-linecap:round}.st47{stroke:#fff;stroke-width:1.5;stroke-linejoin:round}.st48{stroke:#000}.st49{fill:#3094ff}.st50,.st51{fill:none;stroke:#000;stroke-width:1.2;stroke-miterlimit:10}.st51{stroke-width:2}.st53{stroke:#000;stroke-linecap:round;stroke-linejoin:round}.st53,.st54,.st56{fill:none;stroke-width:2;stroke-miterlimit:10}.st54{stroke:#fff;stroke-linecap:round;stroke-linejoin:round}.st56{stroke:#fa4c34}.st57{fill:#fa4c34}.st61{fill:none;stroke:#fa7977;stroke-miterlimit:10}.st63{fill:#df5342}.st65{fill:#4d6cba}.st66,.st69{stroke:#000;stroke-miterlimit:10}.st69{fill:none;stroke:#fff;stroke-width:2}.st71{stroke:#f4462e;stroke-width:1.2;stroke-linecap:round}.st71,.st73,.st74{fill:none;stroke-miterlimit:10}.st73{stroke:#000;stroke-width:1.75;stroke-linecap:round}.st74{stroke:#fff;stroke-width:1.2}.st77{fill:#fda758}.st79{fill:#35290d}.st85{fill:#278cf0}.st87{fill:#ff9f00}.st111{fill:none;stroke:#000;stroke-linecap:round}.st123{fill:none;stroke:#999;stroke-miterlimit:10}.st124{fill:#999}.st126,.st133{stroke-miterlimit:10}.st126{fill:none;stroke:#999;stroke-linecap:round}.st133{fill:#fff;stroke:#000;stroke-width:2}.st138,.st139,.st142,.st144{fill:none;stroke:#73c881;stroke-width:1.3;stroke-miterlimit:10}.st139,.st142,.st144{stroke:#ff9b26;stroke-width:1.2}.st142,.st144{stroke:#f74d4d;stroke-width:2}.st144{stroke:#000;stroke-width:1.7394;stroke-linecap:round}.st147{fill:#2f94fc}.st148{fill:none;stroke:#313949;stroke-miterlimit:10}.st150{fill:#199361}.st153{fill:#b21414}.st156{fill:#3e8edd}.st159{fill:#d37f0f}.st161{fill:none;stroke:#000;stroke-linecap:round;stroke-linejoin:round;stroke-miterlimit:10}.st165{stroke:#ffa800;stroke-width:2}.st165,.st168,.st169{fill:none;stroke-miterlimit:10}.st168{stroke:#444;stroke-width:2}.st169{stroke:#7abc64;stroke-linecap:round}.st170{fill:#7abc64}.st172{fill:none;stroke:#f97575;stroke-linecap:round;stroke-miterlimit:10}.st173{fill:#f97575}.st174{stroke:#000;stroke-linejoin:round}.st174,.st178,.st179{fill:none;stroke-linecap:round}.st178{stroke:#000;stroke-width:1.5;stroke-miterlimit:10}.st179{stroke:#388be5;stroke-linejoin:round}.st181{fill:#eb3a38}.st182{fill:#e01e5a}.st183{fill:#36c5f0}.st184{fill:#2eb67d}.st185{fill:#ecb22e}.st187{fill:#515564}.st188{fill:#e85252}.st189{fill:#4abe58}.st195{fill:#737a90}.st196{opacity:.8;fill:#596077;enable-background:new}.st197{fill:none;stroke:#d66466;stroke-miterlimit:10}.st199{fill:#4a4e5e}.st200{fill:#9ad59a}.st201{fill:#77b1ff}</style><path d="M14 131H4c-1.1 0-2-.9-2-2v-10c0-1.1.9-2 2-2h10c1.1 0 2 .9 2 2v10c0 1.1-.9 2-2 2z" fill="#bbb"/><path class="st1" d="M224.4 323.5c-.1 0-.2 0-.3-.1-.2-.1-.3-.4-.1-.6l2.2-3.4c.1-.1.2-.2.4-.2h4.7c.4 0 .8-.4.8-.8v-8.6c0-.4-.4-.8-.8-.8h-4.9c-.3 0-.5-.2-.5-.5s.2-.5.5-.5h4.9c.9 0 1.7.8 1.7 1.7v8.6c0 .9-.8 1.7-1.7 1.7h-4.5l-2 3.2c-.1.2-.2.3-.4.3zm-2.2-3.4h-3.5c-.9 0-1.7-.8-1.7-1.7v-8.6c0-.9.8-1.7 1.7-1.7h4.4c.3 0 .5.2.5.5s-.2.5-.5.5h-4.4c-.4 0-.8.4-.8.8v8.6c0 .4.3.8.8.8h3.5c.3 0 .5.2.5.5s-.2.3-.5.3z"/><circle class="st1" cx="228.4" cy="314" r=".9"/><circle class="st1" cx="225" cy="314" r=".9"/><circle class="st1" cx="221.6" cy="314" r=".9"/><path d="M248.5 316.6c-1.4-1.4-2.8-3-2.2-3.6.9-.9 1.7-1.5.1-3.5-1.6-2-2.6-.5-3.6.3-1 1-.1 4.8 3.7 8.5 3.7 3.7 7.4 4.8 8.4 3.7.9-.9 2.4-2 .3-3.6-2-1.6-2.5-.8-3.5.1-.2.7-1.8-.6-3.2-1.9z" fill="none" stroke="#5697d0" stroke-width="1.211" stroke-miterlimit="10" id="call_receiver_phone_1_"/><path d="M275 319.5h-8c-.8 0-1.5-.7-1.5-1.5v-6c0-.8.7-1.5 1.5-1.5h8c.8 0 1.5.7 1.5 1.5v6c0 .8-.7 1.5-1.5 1.5z" fill="none" stroke="#5697d0" stroke-width=".994" stroke-miterlimit="10"/><path d="M279 318.8l-1.5-2.1v-3.2l1.5-2.1c.8 0 1.5.7 1.5 1.6v4.3c0 .7-.7 1.5-1.5 1.5z" fill="none" stroke="#5697d0" stroke-width=".962" stroke-miterlimit="10"/><circle class="st1" cx="274" cy="313" r="1"/><g class="st5"><path class="st1" d="M293.7 322.2c-.4 0-.8-.1-1.2-.4-.5-.3-.9-.8-1-1.4s0-1.2.3-1.7l.6-1h-1.2c-1.2 0-2.2-1-2.2-2.2s1-2.2 2.2-2.2h1.2l-.6-1c-.3-.5-.4-1.1-.3-1.7s.5-1.1 1-1.4c1-.6 2.4-.4 3.1.7l3.6 5.6-3.6 5.6c-.5.8-1.2 1.1-1.9 1.1zm-2.5-7.9c-.7 0-1.3.6-1.3 1.3 0 .7.6 1.3 1.3 1.3h2.9l-1.6 2.5c-.2.3-.2.6-.2 1 .1.3.3.6.5.8.6.4 1.4.2 1.8-.4l3.3-5.1-3.3-5.1c-.4-.6-1.2-.8-1.8-.4-.3.2-.5.5-.5.8-.1.3 0 .7.2 1l1.6 2.5h-2.9v-.2z"/></g><g class="st5"><path class="st1" d="M300.4 322.2c-.7 0-1.5-.4-1.9-1l-1.9-3c-.2-.2-.1-.5.1-.7s.5-.1.6.1l1.9 3c.4.6 1.2.8 1.8.4.3-.2.5-.5.5-.8.1-.3 0-.7-.2-1l-1.6-2.5h2.9c.7 0 1.3-.6 1.3-1.3 0-.7-.6-1.3-1.3-1.3h-2.9l1.5-2.4c.2-.3.2-.6.2-1-.1-.3-.3-.6-.6-.8-.6-.4-1.4-.2-1.8.4l-1.9 2.9c-.1.2-.4.3-.6.1-.2-.1-.3-.4-.1-.6l1.9-2.9c.6-1 2-1.3 3.1-.7.5.3.9.8 1 1.4s0 1.2-.3 1.7l-.6 1h1.1c1.2 0 2.2 1 2.2 2.2s-1 2.2-2.2 2.2h-1.2l.6 1c.3.5.4 1.1.3 1.7s-.5 1.1-1 1.4c-.1.4-.5.5-.9.5z"/></g><path class="st6" d="M203.4 352.5c-.1 0-.2 0-.3-.1-.2-.1-.3-.4-.1-.6l2.2-3.4c.1-.1.2-.2.4-.2h4.7c.4 0 .8-.4.8-.8v-8.6c0-.4-.4-.8-.8-.8h-4.9c-.3 0-.5-.2-.5-.5s.2-.5.5-.5h4.9c.9 0 1.7.8 1.7 1.7v8.6c0 .9-.8 1.7-1.7 1.7h-4.5l-2 3.2c-.1.2-.2.3-.4.3zm-2.2-3.4h-3.5c-.9 0-1.7-.8-1.7-1.7v-8.6c0-.9.8-1.7 1.7-1.7h4.4c.3 0 .5.2.5.5s-.2.5-.5.5h-4.4c-.4 0-.8.4-.8.8v8.6c0 .4.3.8.8.8h3.5c.3 0 .5.2.5.5s-.2.3-.5.3z"/><circle class="st6" cx="207.4" cy="343" r=".9"/><circle class="st6" cx="204" cy="343" r=".9"/><circle class="st6" cx="200.6" cy="343" r=".9"/><path d="M227.5 345.6c-1.4-1.4-2.8-3-2.2-3.6.9-.9 1.7-1.5.1-3.5-1.6-2-2.6-.5-3.6.3-1 1-.1 4.8 3.7 8.5 3.7 3.7 7.4 4.8 8.4 3.7.9-.9 2.4-2 .3-3.6-2-1.6-2.5-.8-3.5.1-.2.7-1.8-.6-3.2-1.9z" fill="none" stroke="#fff" stroke-width="1.211" stroke-miterlimit="10" id="call_receiver_phone_3_"/><path d="M254 348.5h-8c-.8 0-1.5-.7-1.5-1.5v-6c0-.8.7-1.5 1.5-1.5h8c.8 0 1.5.7 1.5 1.5v6c0 .8-.7 1.5-1.5 1.5z" fill="none" stroke="#fff" stroke-width=".994" stroke-miterlimit="10"/><path d="M258 347.8l-1.5-2.1v-3.2l1.5-2.1c.8 0 1.5.7 1.5 1.6v4.3c0 .7-.7 1.5-1.5 1.5z" fill="none" stroke="#fff" stroke-width=".962" stroke-miterlimit="10"/><circle class="st6" cx="253" cy="342" r="1"/><g class="st5"><path class="st6" d="M272.7 351.2c-.4 0-.8-.1-1.2-.4-.5-.3-.9-.8-1-1.4s0-1.2.3-1.7l.6-1h-1.2c-1.2 0-2.2-1-2.2-2.2s1-2.2 2.2-2.2h1.2l-.6-1c-.3-.5-.4-1.1-.3-1.7s.5-1.1 1-1.4c1-.6 2.4-.4 3.1.7l3.6 5.6-3.6 5.6c-.5.8-1.2 1.1-1.9 1.1zm-2.5-7.9c-.7 0-1.3.6-1.3 1.3 0 .7.6 1.3 1.3 1.3h2.9l-1.6 2.5c-.2.3-.2.6-.2 1 .1.3.3.6.5.8.6.4 1.4.2 1.8-.4l3.3-5.1-3.3-5.1c-.4-.6-1.2-.8-1.8-.4-.3.2-.5.5-.5.8-.1.3 0 .7.2 1l1.6 2.5h-2.9v-.2z"/></g><g class="st5"><path class="st6" d="M279.4 351.2c-.7 0-1.5-.4-1.9-1l-1.9-3c-.2-.2-.1-.5.1-.7s.5-.1.6.1l1.9 3c.4.6 1.2.8 1.8.4.3-.2.5-.5.5-.8.1-.3 0-.7-.2-1l-1.6-2.5h2.9c.7 0 1.3-.6 1.3-1.3 0-.7-.6-1.3-1.3-1.3h-2.9l1.5-2.4c.2-.3.2-.6.2-1-.1-.3-.3-.6-.6-.8-.6-.4-1.4-.2-1.8.4l-1.9 2.9c-.1.2-.4.3-.6.1-.2-.1-.3-.4-.1-.6l1.9-2.9c.6-1 2-1.3 3.1-.7.5.3.9.8 1 1.4s0 1.2-.3 1.7l-.6 1h1.1c1.2 0 2.2 1 2.2 2.2s-1 2.2-2.2 2.2h-1.2l.6 1c.3.5.4 1.1.3 1.7s-.5 1.1-1 1.4c-.1.4-.5.5-.9.5z"/></g><path class="st10" d="M62.5 60.5h-13c-.6 0-1-.4-1-1v-8c0-.6.4-1 1-1h13c.6 0 1 .4 1 1v8c0 .6-.4 1-1 1z"/><path d="M49 53h14v2H49zM50 58h2v1h-2zM53 58h2v1h-2z"/><path fill="none" stroke="#000" stroke-width="1.5" stroke-linecap="round" stroke-linejoin="round" stroke-miterlimit="10" d="M73.6 4.5L66 12.2l-7.7-7.7"/><path d="M54 4l-8 9.6L38 4h16z"/><path class="st12" d="M28.9 13.2l5.7-5.7-5.7-5.8M34.1 7.5H19.4"/><path d="M8 0C3.6 0 0 3.6 0 8s3.6 8 8 8 8-3.6 8-8-3.7-8-8-8zm.7 2.8c.7 0 1.2.5 1.2 1.2s-.4 1.3-1.2 1.3-1.2-.5-1.2-1.2.5-1.3 1.2-1.3zm1 9.9c-1.2.9-1.8 1-2.3 1-.4 0-.5-.1-.6-.2-1.5-1-.7-4.2.1-6.8.1-.5.7-.8 1.2-.7s.7.7.6 1.2c-.6 1.7-1 3.6-.9 4.3.2-.1.6-.4 1-.5.4-.2 1-.1 1.2.2.2.6.1 1.1-.3 1.5z"/><path class="st13" d="M78.8 0H89v.6H78.8z"/><path class="st14" d="M83.9 0H89v.6h-5.1z"/><path class="st13" d="M79.2.6s-.1 5.2 3.4 7.9c0 0-.2.4.1.4h1.5V.6h-5z"/><path d="M88.8.6s.1 5.2-3.4 7.9c0 0 .2.4-.1.4h-1.4V.6h4.9z" fill="#f9be03"/><path class="st16" d="M83.3 8.9v1.3h-.6s.2.5.3.5-.4.3-.6.7c-.1.2 0 .4.2.4H84V8.9h-.7z"/><path class="st14" d="M84.5 9v1.3h.8s-.2.5-.3.5.3.3.6.6c.1.2 0 .4-.2.4H84V9h.5z"/><path fill="#aaa" d="M81.9 11.8H86l.3.4h-4.7z"/><path fill="#969696" d="M83.9 11.8v.4h2.4l-.3-.4z"/><path fill="#575b72" d="M83.9 12.2h2.9v3.2h.6v.6h-3.5z"/><path fill="#868da8" d="M84 12.2h-2.7v3.2h-.6v.6H84z"/><path class="st14" d="M88.8 1.6h2.1c.1.3-.3 4.7-4.1 5.5l.2-.4c.2-.2 2.5-.3 3-4.8h-1.3l.1-.3z"/><path class="st16" d="M79.2 1.6H77c0 .3.3 4.7 4.1 5.5l-.2-.3c-.2-.2-2.4-.3-3-4.8h1.3v-.4z"/><path class="st21" d="M79.2.6l9.5.4V.6zM90.1 1.9h.2c.1 0-.4 2.1-.8 2.3.1 0 .5-1.3.6-2.3zM83.4 9l1.1.3V9zM84.8 8.5h.6s.3.2 0 .5c-.1-.1-.2-.5-.6-.5zM84.5 10.9h.4s.8.5.6.9c0 0-.2-.6-1-.9zM78 1.9s0 .8.2 1.4c.2.9.6 1.7.6 1.7s-1-1.2-.8-3.1z"/><path fill="#afd3dd" d="M82.3 13.1h1.6v1.6h-1.6z"/><path fill="#94bbc4" d="M83.9 13.1h1.9v1.6h-1.9"/><path class="st24" d="M82.5 13.4zM82.5 14.5z"/><path class="st25" d="M85.6 13.4zM85.6 14.5zM82.9 13.8h2.3zM82.9 13.8h2zM82.9 14.1h2zM82.9 14.4h1.6z"/><path class="st26" d="M80.4.8s.1.9-.9 1c0 0 .8 0 .9 1.1 0-.2-.1-.8.8-1-.1-.1-.6 0-.8-1.1zM88 2.1s.1.6-.6.7c0 0 .5 0 .6.7 0-.1-.1-.6.5-.7.1 0-.3.1-.5-.7z"/><path d="M82.6 7.5s0 .4-.4.4c0 0 .4 0 .4.5 0-.1-.1-.4.4-.5-.1 0-.3.1-.4-.4z" fill="#f9f9f9"/><path fill="#fffefd" d="M84 2.8l.4.6.8.2-.5.6.1.8-.8-.2-.9.2.2-.7-.5-.7.7-.2z"/><path d="M117 2v11.8h16V2h-16zm5.1 10.9h-4.2v-2.5h4.2v2.5zm0-3.3h-4.2V7.1h4.2v2.5zm0-3.4h-4.2V3.7h4.2v2.5zm5 6.7h-4.2v-2.5h4.2v2.5zm0-3.3h-4.2V7.1h4.2v2.5zm0-3.4h-4.2V3.7h4.2v2.5zm5.1 6.7H128v-2.5h4.2v2.5zm0-3.3H128V7.1h4.2v2.5zm0-3.4H128V3.7h4.2v2.5zM167 0c-4.4 0-8 3.6-8 8s3.6 8 8 8 8-3.6 8-8-3.6-8-8-8zm1.1 12.4c-.1.5 0 1.1-.3 1.6-.1.3 0 .7-.1 1.1-.3 0-.4.1-.7.1-3.9 0-7.1-3.2-7.1-7.1 0-1.5.5-2.9 1.3-4.1v.3c0 .4 0 .8.3 1.1.1.1.4.3.5.4.1.3.5.3.7.4.1.1.3.4.4.5s.1.4.3.4c.4.1.8.1 1.2.4.7.4 1.2.8 1.9 1.1.3.1.5 0 .7.3s-.3.5-.3.8c0 .1 0 .4-.1.5.1.4.4.7.5.9.1.3.5.4.7.5.2.3.1.5.1.8zm.5 2.4c.1-.1.1-.4.3-.5.1-.1 0-.3.1-.3s.4 0 .5-.3l-.1-.1h.4c.3-.4.5-.7.8-1.1.1-.3.4-.3.5-.4l.4-.4c0-.3 0-.5.1-.7.1-.1.4-.4.4-.7 0-.1 0-.3-.1-.4-.4-.3-1.1-.1-1.5-.5-.1-.1-.1-.4-.3-.5-.1-.3-.4-.3-.7-.3-.1 0-.3-.1-.5-.3-.4-.3-.8-.3-1.3-.3-.1 0-.4.1-.4.3s-.1 0-.3 0c-.4-.1-.8-.4-.9-.7 0-.1-.1-.1-.3-.1 0-.1.3-.4.3-.5-.3-.1-.4 0-.7 0-.1 0-.1-.1-.1-.3 0-.3 0-.4.3-.5s.5-.4.8-.3.3.4.5.5c.1-.3 0-.5 0-.7.1-.1.4-.3.5-.4s0-.3 0-.4c.3-.3.4-.5.8-.8.3-.1.4 0 .7 0 .1 0 .3-.3.4-.3.3-.1.5-.1.8-.1-.1-.1-.1-.4-.4-.4-.1 0-.3.3-.4.4-.1.1-.4 0-.5-.1-.3.1-.4.1-.7.3.5-.3.9-.3 1.5-.5.1 0 .1-.1.1-.1-.1-.3-.4-.4-.5-.7-.1-.1-.1-.3-.3-.4-.1-.1-.4.1-.5 0-.3-.1-.4-.4-.7-.4-.1 0-.3-.1-.4 0-.1.3.1.5.1.8-.1.1-.1.4-.3.7 0 .1-.3.3-.4.1 0-.1.1-.4-.1-.4-.4-.1-.7-.3-1.1-.4-.3-.1-.4-.3-.3-.5.3-.3.5-.4.8-.7.3 0 .5-.1.8-.1h.5c-.1 0-.1.1-.3.1.1.1.3 0 .4 0 .4 0 .5.4.9.4.1-.1-.3-.1-.3-.3h.4c.4.1.8.3 1.2.4V2c-.1.1-.4.1-.4.3.1.3.4.5.7.8.1.1.4.3.7.1.1-.1.3-.4.4-.5 1.7 1.3 2.9 3.3 2.9 5.7.3 2.9-2.1 5.7-5.2 6.4zM190.8 8.8l-3.8 3.7V.4h-2v12.1l-3.8-3.7-1.4 1.4 6.2 6.3 6.2-6.3zM204.5 16.2l-7-7.1 2.4-2.4 4.6 4.7L216-.1l2.4 2.4zM224 10.6l5.3 5.4 5.3-5.4h-4V.2H228v10.4zM262.5 0h-19c-.8 0-1.5.7-1.5 1.5v13c0 .8.7 1.5 1.5 1.5h19c.8 0 1.5-.7 1.5-1.5v-13c0-.8-.7-1.5-1.5-1.5zm-5.4 8.7l-.7.7 5.8 5.5h-18.6l5.6-5.9-.7-.7-5.5 5.8V1.5l10 7.1 10-7v12.7l-5.9-5.6zM244 1h18.1L253 7.4 244 1zM281.6 7.3c1.1-1.2 2.2-2.3 3.4-3.4h.3c.6.2 1 .1 1.4-.3.3-.3.7-.8 1-1.1s.3-.4 0-.7L286.4.5c-.2-.3-.4-.2-.6 0-.3.3-.8.7-1.1 1.1-.3.3-.4.8-.3 1.3.1.2.1.3-.1.4-.8.8-1.4 1.5-2.2 2.3-.4.3-.8.8-1.2 1.2-.3-.3-.7-.8-1.1-1.1-.4-.3-.5-.8-.5-1.3.2-2.9-2.7-5.1-5.5-4.2-.4.2-.5.4-.2.8.5.6 1.1 1.2 1.7 1.8.1.1.2.3.1.4l-.3.9c0 .2-.2.3-.3.3-.3.1-.6.2-.8.3-.2 0-.3 0-.5-.2-.5-.6-1.1-1.2-1.7-1.8-.3-.3-.5-.3-.7.2-.3.7-.3 1.3-.2 2 .4 2.4 2.4 3.9 4.8 3.5.1 0 .2 0 .3.1.2.2.3.3.6.5-.2.1-.3.2-.3.3-.9 1-1.9 1.9-2.9 2.9-.4.4-.7.9-.8 1.5-.2 1 .4 1.8 1.3 1.9.8.1 1.4-.3 2-.8.9-1 1.9-1.9 2.9-2.9l.3-.3.3.3c1.1 1.2 2.2 2.3 3.3 3.4.6.6 1.3.8 2.2.7.8-.2 1.4-.8 1.7-1.6.3-.9.1-1.7-.6-2.4-.8-.8-1.5-1.6-2.3-2.4l-2.4-2.4c.1.1.1 0 .3.1zm3.5-5.2c.3-.3.7-.6.9-.9l.9.9-.9.9c-.3.3-.7.3-.9 0-.3-.3-.3-.7 0-.9zm-6.6 9.3c-1 1-1.9 2-2.9 3-.3.3-.7.5-1.1.6-.8.1-1.3-.4-1.1-1.2.1-.3.3-.8.5-1 1-1.1 2.1-2.1 3.2-3.3.6.6 1.1 1.1 1.6 1.7-.2.1-.2.1-.2.2zm6.9 1.1c.4.5.6 1 .4 1.7-.3 1.2-1.8 1.6-2.7.7-1.3-1.3-2.4-2.4-3.6-3.7-1-1.1-2.1-2.1-3.1-3.2-.3-.2-.4-.3-.7-.2-2.4.4-4.4-1.6-4.1-4 0 0 .1-.1.1-.2l.3.3c.4.5.9.9 1.3 1.4.2.2.3.3.6.2.5-.2 1-.3 1.5-.4.3-.1.3-.2.4-.4.2-.5.3-1 .4-1.5.1-.3 0-.4-.2-.6l-1.3-1.3c-.1-.1-.1-.2-.3-.3.9-.2 1.8-.1 2.5.4 1.3.8 1.9 2.4 1.6 3.8-.1.3 0 .5.2.7 2.3 2 4.5 4.3 6.7 6.6zM308.5.8h-1.6v.8h1.6c.5 0 .9.4.9.9v10h-2.5V15h-9.3c-.4 0-.8-.3-.8-.8v-12c0-.4.3-.7.7-.7h1.9V.8h-1.8c-.9 0-1.6.7-1.6 1.6v12c0 .9.7 1.6 1.6 1.6h10.1l2.6-3.5V2.6c0-1-.8-1.8-1.8-1.8zm-4.9 5.1h-3.4v.8h2.5v.8H301v.8h1.7v.8h-2.5v.8h3.4v-4zm2.5 4.2V5.9h-1.7v.8h.8v3.4h.9zm-5-10.1h-.8v2.5h.8V0zm5 0h-.8v2.5h.8V0zm-1.7.8h-2.5v.8h2.5V.8zM332.8 10.6c-1.1-.9-1.8-1.6-1.8-4.5 0-2.2-1.4-4-3.4-4.7-.2-.8-.8-1.4-1.7-1.4s-1.5.6-1.7 1.4c-2 .7-3.4 2.5-3.4 4.7 0 2.9-.8 3.6-1.8 4.5-.6.5-1 1.3-1 2.2s.7 1.6 1.7 1.6h4.5c0 .8.8 1.7 1.7 1.7.9 0 1.7-.8 1.7-1.7h4.5c.9 0 1.7-.8 1.7-1.6 0-.9-.5-1.7-1-2.2zm-.7 2.9h-12.5c-.4 0-.8-.3-.8-.9s.2-1 .7-1.3c1.3-1.1 2.2-2.1 2.2-5.2 0-1.7 1.2-3.3 2.8-3.8l.5-.2.1-.3h1.7l.1.3.5.2c1.7.6 2.8 2.2 2.8 3.8 0 3.1.8 4 2.2 5.2.4.3.7.9.7 1.4-.3.5-.7.8-1 .8z"/><path id="Path_45" class="st10" d="M373.3 10.9c-1 1.6-2.8 2.6-4.7 2.5-3.1 0-5.5-2.5-5.5-5.5"/><path id="Path_46" class="st10" d="M364.1 4.9c1.7-2.5 5.2-3.2 7.7-1.4 1.5 1 2.4 2.7 2.4 4.5"/><path id="Path_47" class="st10" d="M372 6.7l2.2 1.7 1.8-2.2"/><path id="Path_48" class="st10" d="M365.3 8.9l-2.4-1.5-1.5 2.5"/><ellipse id="Oval" cx="104" cy="33" rx="7.5" ry="7.2" fill-rule="evenodd" clip-rule="evenodd" fill="#fff" stroke="#41a2eb" stroke-width=".408"/><path id="Icon-" d="M104 33h1.6v.5H104V35h-.5v-1.6h-1.6v-.5h1.6v-1.5h.5V33h0z" fill-rule="evenodd" clip-rule="evenodd" fill="#41a2eb" stroke="#41a2eb" stroke-width=".408"/><path d="M17.9 31.9h-11l2.6-2.6c.2-.2.3-.5.3-.8 0-.6-.5-1.1-1.1-1.1-.3 0-.6.1-.8.3l-4.6 4.6c-.1 0-.3.2-.3.7s.1.6.3.8l4.6 4.6c.2.2.5.3.8.3.7 0 1.1-.6 1.1-1.1 0-.3-.1-.6-.3-.8l-2.6-2.6h11c.7 0 1.1-.5 1.1-1.1s-.5-1.2-1.1-1.2z"/><path id="Combined-Shape" d="M30.9 39.5l-1 1h-3.4v-3.4l1-1 3.4 3.4zm.8-.8l-3.4-3.3 8-8 3.3 3.3-7.9 8zm10.6-10.6l-1.6 1.6-3.4-3.4 1.6-1.6c.4-.4.9-.4 1.3 0l2.1 2.1c.2.4.2.9 0 1.3z"/><path id="Combined-Shape_1_" class="st31" d="M360.9 39.5l-1 1h-3.4v-3.4l1-1 3.4 3.4zm.8-.8l-3.4-3.3 8-8 3.3 3.3-7.9 8zm10.6-10.6l-1.6 1.6-3.4-3.4 1.6-1.6c.4-.4.9-.4 1.3 0l2.1 2.1c.2.4.2.9 0 1.3z"/><path d="M54.9 37.7l-.8.8c-.7.7-1.8.7-2.5 0-.4-.3-.6-.8-.6-1.3s.2-.9.5-1.3l3-3c.6-.6 1.8-1.5 2.6-.7.4.4 1 .4 1.4 0 .4-.4.4-1 0-1.4-1.4-1.3-3.6-1-5.4.8l-3 3c-.7.7-1.1 1.6-1.1 2.6s.4 1.9 1.1 2.7c.7.7 1.7 1.1 2.7 1.1s1.9-.4 2.7-1.1l.8-.8c.4-.4.4-1 0-1.4-.4-.4-1.1-.4-1.4 0zm9-11.5c-1.6-1.5-3.7-1.6-5.1-.2l-1 1c-.4.4-.4 1 0 1.4s1 .4 1.4 0l1-1c.7-.7 1.7-.4 2.3.2.3.4.5.8.5 1.3s-.2.9-.5 1.3l-3.2 3.2c-1.4 1.3-2.1.6-2.4.4-.4-.4-1-.4-1.4 0s-.4 1 0 1.4c.7.7 1.4 1 2.2 1 1 0 2-.5 3-1.5l3.2-3.2c.7-.7 1.1-1.6 1.1-2.6s-.4-2-1.1-2.7z"/><path id="SVGID_1_" d="M125.9 26c-.1 0-.4.1-.5.3l-7.1 6.8c-.1.1-.3.3-.3.5 0 .1.1.4.3.5l2.1 2v4.5c0 .1.1.4.3.5.1.1.4.3.5.3h2.5c.3 0 .4-.1.5-.3.1-.1.3-.3.3-.5v-5.3h2.9v5.3c0 .1.1.4.3.5.1.1.4.3.5.3h2.5c.3 0 .4-.1.5-.3.1-.1.3-.3.3-.5v-4.5l2.1-2c.1-.1.3-.3.3-.5 0-.1-.1-.4-.3-.5l-7.1-6.8c-.2-.2-.5-.3-.6-.3z"/><path id="SVGID_9_" d="M391.9 27.1h-3l-.9-.9h-4.3l-.9.9h-3v1.7h12l.1-1.7zm-11 12.8c0 .9.8 1.7 1.7 1.7h6.9c.9 0 1.7-.8 1.7-1.7V29.7h-10.3v10.2z" fill="#f78985"/><path class="st33" d="M375.7 26h17.1v16h-17.1z"/><circle class="st34" cx="199.2" cy="33.2" r="6.2"/><path class="st34" d="M207 41l-3.4-3.4M199.2 30.9v4.7M196.9 33.2h4.7"/><circle class="st34" cx="170.2" cy="33.2" r="6.2"/><path class="st34" d="M178 41l-3.4-3.4M167.9 33.2h4.7"/><path d="M225.1 27.9l-6.9 11.5c-.4.7.1 1.6.9 1.6H233c.8 0 1.3-.9.9-1.6-1.7-2.8-5.3-8.8-7-11.5-.4-.7-1.4-.7-1.8 0z" fill="#ee4242"/><path class="st6" d="M225.5 32.2h1.2v4.9h-1.2zM225.5 38h1.2v1.2h-1.2z"/><path d="M246 26.4v3.2c0 .2.2.4.4.4h5.2c.2 0 .4-.2.4-.4v-3.2c0-.2.2-.4.4-.4h.8c.4 0 .8.2 1.1.5l2.3 2.3c.3.3.5.7.5 1.1v10.5c0 .9-.7 1.6-1.6 1.6h-12.8c-.9 0-1.6-.7-1.6-1.6V27.6c0-.9.7-1.6 1.6-1.6h3c.1 0 .3.2.3.4zm-3 6v7.2c0 .2.2.4.4.4h11.2c.2 0 .4-.2.4-.4v-7.2c0-.2-.2-.4-.4-.4h-11.2c-.2 0-.4.2-.4.4zm8-3.4h-2v-3h2v3z" fill-rule="evenodd" clip-rule="evenodd" fill="#fff"/><path d="M278 36c1.1 0 2-.9 2-2s-.9-2-2-2-2 .9-2 2 .9 2 2 2zm-6 0c1.1 0 2-.9 2-2s-.9-2-2-2-2 .9-2 2 .9 2 2 2zm-6 0c1.1 0 2-.9 2-2s-.9-2-2-2-2 .9-2 2 .9 2 2 2z"/><path class="st37" d="M294.8 41.4l-1.1.5c-.5.2-1.1.1-1.4-.4l-.7-1c-.1-.1-.2-.2-.4-.2l-1.2-.1c-.5-.1-1-.5-1-1l-.1-1.2c0-.2-.1-.3-.2-.4l-1-.7c-.4-.3-.6-.9-.4-1.4l.5-1.1c.1-.1.1-.3 0-.5l-.5-1.1c-.2-.5-.1-1.1.4-1.4l1-.7c.1-.1.2-.2.2-.4l.1-1.2c.1-.5.5-1 1-1l1.2-.1c.2 0 .3-.1.4-.2l.7-1c.3-.4.9-.6 1.4-.4l1.1.5c.1.1.3.1.5 0l1.1-.5c.5-.2 1.1-.1 1.4.4l.7 1c.1.1.2.2.4.2l1.2.1c.5.1 1 .5 1 1l.1 1.2c0 .2.1.3.2.4l1 .7c.4.3.6.9.4 1.4l-.5 1.1c-.1.1-.1.3 0 .5l.5 1.1c.2.5.1 1.1-.4 1.4l-1 .7c-.1.1-.2.2-.2.4l-.1 1.2c-.1.5-.5 1-1 1l-1.2.1c-.2 0-.3.1-.4.2l-.7 1c-.3.4-.9.6-1.4.4l-1.1-.5c-.2-.1-.4-.1-.5 0z"/><path class="st38" d="M291.4 33.4l2.7 2.8 4.6-4.6"/><path fill="none" stroke="#fff" stroke-width="1.2" stroke-linecap="round" stroke-linejoin="round" stroke-miterlimit="10" d="M398.8 33.5l1.3 1.5 2.9-2.4"/><path d="M318.8 41.4l-1.1.5c-.5.2-1.1.1-1.4-.4l-.7-1c-.1-.1-.2-.2-.4-.2l-1.2-.1c-.5-.1-1-.5-1-1l-.1-1.2c0-.2-.1-.3-.2-.4l-1-.7c-.4-.3-.6-.9-.4-1.4l.5-1.1c.1-.1.1-.3 0-.5l-.5-1.1c-.2-.5-.1-1.1.4-1.4l1-.7c.1-.1.2-.2.2-.4l.1-1.2c.1-.5.5-1 1-1l1.2-.1c.2 0 .3-.1.4-.2l.7-1c.3-.4.9-.6 1.4-.4l1.1.5c.1.1.3.1.5 0l1.1-.5c.5-.2 1.1-.1 1.4.4l.7 1c.1.1.2.2.4.2l1.2.1c.5.1 1 .5 1 1l.1 1.2c0 .2.1.3.2.4l1 .7c.4.3.6.9.4 1.4l-.5 1.1c-.1.1-.1.3 0 .5l.5 1.1c.2.5.1 1.1-.4 1.4l-1 .7c-.1.1-.2.2-.2.4l-.1 1.2c-.1.5-.5 1-1 1l-1.2.1c-.2 0-.3.1-.4.2l-.7 1c-.3.4-.9.6-1.4.4l-1.1-.5c-.2-.1-.4-.1-.5 0z" fill-rule="evenodd" clip-rule="evenodd" fill="#53c7f7"/><path class="st38" d="M315.4 33.4l2.7 2.8 4.6-4.6"/><path id="Stroke-1_1_" d="M387.6 2.2c4.1 0 7.4 3.3 7.4 7.4 0 4-3.3 7.4-7.4 7.4s-7.4-3.3-7.4-7.4 3.3-7.4 7.4-7.4z" fill="none" stroke="#f4462e" stroke-width="1.107"/><path id="Stroke-3_1_" d="M390.7 9.6h-6.2" fill="none" stroke="#f4462e" stroke-width=".922" stroke-linecap="round"/><ellipse id="Oval_1_" cx="342" cy="35" rx="7.5" ry="7.2" fill-rule="evenodd" clip-rule="evenodd" fill="#fff" stroke="#231f20" stroke-width=".408"/><path id="Icon-_1_" d="M342 35h1.6v.5H342V37h-.5v-1.6h-1.6v-.5h1.6v-1.5h.5V35h0z" fill-rule="evenodd" clip-rule="evenodd" fill="#231f20" stroke="#231f20" stroke-width=".408"/><path class="st45" d="M404.9 2.5l-4.3 4.1M400.6 2.5l4.3 4.1"/><path class="st6" d="M9 59H7.1c-.2 0-.3 0-.2.1l2.9 2.8c.1.1.3 0 .4-.1l2.9-2.7c.1-.2 0-.2-.2-.2H11V55h4v1.9c0 .2 0 .3.1.2l2.8-2.9c.1-.1 0-.3-.1-.4l-2.7-2.9c-.1-.1-.1 0-.1.2V53h-4v-4h1.9c.2 0 .3 0 .2-.1l-2.9-2.8c-.1-.1-.3 0-.4.1l-2.9 2.7c-.1.1 0 .1.2.1H9v4H5v-1.9c0-.2 0-.3-.1-.2l-2.8 2.9c-.1.1 0 .3.1.4l2.7 2.9c.2.1.2 0 .2-.2V55h4L9 59z"/><path d="M32 46c-4.4 0-8 3.6-8 8s3.6 8 8 8 8-3.6 8-8-3.7-8-8-8z" fill="#589bed"/><path class="st47" d="M28.7 54.2l2.1 2.1 5-5"/><path class="st48" d="M82.3 60.4c.8-1 1.2-2.3 1.2-3.7 0-3.5-2.9-6.3-6.5-6.3s-6.5 2.8-6.5 6.3c0 1.4.5 2.6 1.2 3.7h10.6z"/><path d="M79.6 53l-3.4 3.7c-.3.5-.1 1.1.4 1.3.5.3 1.1.1 1.4-.4l1.6-4.6z"/><path class="st49" d="M94.5 54h-3c-.3 0-.5.2-.5.5v6c0 .3.2.5.5.5h3c.3 0 .5-.2.5-.5v-6c0-.3-.2-.5-.5-.5zM99.5 47h-3c-.3 0-.5.2-.5.5v13c0 .3.2.5.5.5h3c.3 0 .5-.2.5-.5v-13c0-.3-.2-.5-.5-.5zM104.5 51h-3c-.3 0-.5.2-.5.5v9c0 .3.2.5.5.5h3c.3 0 .5-.2.5-.5v-9c0-.3-.2-.5-.5-.5z"/><path d="M120 49l-4 4-4-4h8z"/><path class="st50" d="M128.3 58.8l4.2-4.2-4.2-4.2"/><circle class="st45" cx="146.5" cy="53.5" r="6"/><path class="st45" d="M150.6 57.6l5.1 5.1"/><path d="M115 60l3 2.5-3 2.5v-5z" id="navi_small_down_solid_1_"/><g id="drag_dots_arrange_1_"><path d="M163.5 49.5h2v2h-2zM166.5 49.5h2v2h-2zM163.5 57.5h2v2h-2zM166.5 57.5h2v2h-2zM163.5 53.5h2v2h-2zM166.5 53.5h2v2h-2z"/></g><path class="st10" d="M189.5 63.5h-10c-.6 0-1-.4-1-1v-7c0-.6.4-1 1-1h10c.6 0 1 .4 1 1v7c0 .6-.4 1-1 1zM187.5 54.5h-6v-3c0-1.7 1.3-3 3-3s3 1.3 3 3v3z"/><circle cx="184.5" cy="58.5" r="1.5"/><path class="st10" d="M184.5 59v3"/><path id="SVGID_2_" d="M392 50h-4v-1h-4v1h-4v2h12v-2zm-11 13.3c0 .9.8 1.7 1.7 1.7h6.6c.9 0 1.7-.8 1.7-1.7V53h-10v10.3z"/><path id="Path_2026" d="M63 71c-5.5 0-10 4.5-10 10s4.5 10 10 10 10-4.5 10-10-4.5-10-10-10zm0 18c-4.4 0-8-3.6-8-8s3.6-8 8-8 8 3.6 8 8-3.6 8-8 8zm.5-13H62v6l5.2 3.1.8-1.2-4.5-2.7V76z"/><path id="Path_2027" d="M99.3 80c-.8-4.1-4.7-6.7-8.8-5.9-2.2.4-4.1 1.9-5.2 3.9-3.3.4-5.7 3.4-5.3 6.7.3 3 2.9 5.3 5.9 5.3h13c2.8 0 5-2.2 5-5 .1-2.6-1.9-4.8-4.6-5zm-.3 8H86c-2.2 0-4-1.8-4-4s1.8-4 4-4 4 1.8 4 4h2c0-2.7-1.8-5.1-4.4-5.8 1.8-2.4 5.2-2.9 7.7-1.1 1.4 1 2.2 2.7 2.2 4.4v.5H99c1.7 0 3 1.3 3 3s-1.3 3-3 3z"/><path id="Path_2028" d="M125.5 73c-1.7 0-3.4.8-4.5 2.1-1.1-1.3-2.8-2.1-4.5-2.1-3 0-5.5 2.4-5.5 5.4v.1c0 3.8 3.4 6.9 8.6 11.5l1.4 1.3 1.4-1.3c5.2-4.7 8.6-7.8 8.6-11.5 0-3-2.4-5.5-5.5-5.5zm-4.4 15.6h-.2c-4.8-4.3-7.9-7.2-7.9-10.1 0-1.9 1.4-3.5 3.3-3.5h.2c1.6 0 3 .9 3.6 2.4h1.9c.6-1.4 2-2.4 3.6-2.4 1.9 0 3.5 1.4 3.5 3.3v.2c-.1 2.9-3.2 5.7-8 10.1z"/><path id="Path_2029" d="M146.2 76l2 2h8.8v10h-16V76h5.2m.8-2h-6c-1.1 0-2 .9-2 2v12c0 1.1.9 2 2 2h16c1.1 0 2-.9 2-2V78c0-1.1-.9-2-2-2h-8l-2-2z"/><path id="Path_2030" d="M183 76h-8l-2-2h-6c-1.1 0-2 .9-2 2v12c0 1.1.9 2 2 2h16c1.1 0 2-.9 2-2V78c0-1.1-.9-2-2-2zm0 12h-16V76h5.2l2 2h8.8v10zm-9-6.9c3.9.5 5.4 3.2 6 5.9-1.4-1.9-3.2-2.7-6-2.7v2.2l-4-3.7 4-3.7v2z"/><path id="Path_2031" class="st51" d="M17 77.7l-6.7 6.7-6.6-6.6"/><path id="Path_2032" d="M43 75h-8l-2-2h-6c-1.1 0-2 .9-2 2v12c0 1.1.9 2 2 2h16c1.1 0 2-.9 2-2V77c0-1.1-.9-2-2-2zm0 12H27V75h5.2l2 2H43v10zm-5-5c1.1 0 2-.9 2-2s-.9-2-2-2-2 .9-2 2 .9 2 2 2zm-4 4h8v-1c0-1.3-2.7-2-4-2s-4 .7-4 2v1z"/><path d="M353 7c0 3.3-2.7 6-6 6-3.4 0-6-2.7-6-6s2.7-6 6-6c3.4 0 6 2.7 6 6z" fill="none" stroke="#000" stroke-width="2.004" stroke-miterlimit="10"/><path class="st53" d="M354.4 15.4l-3.6-3.6"/><path class="st54" d="M200.6 59.1l3 3 6.8-6.8"/><path class="st53" d="M217.6 59.1l3 3 6.8-6.8"/><path fill-rule="evenodd" clip-rule="evenodd" fill="#fa7977" d="M244 48.5l-5 6.5h4v15h2V55h4z"/><path class="st10" d="M201.7 84.5l-3.2-3.2-3.2 3.2"/><path class="st56" d="M229 78v4"/><path class="st57" d="M225 82h8l-4 4z"/><path fill="none" stroke="#5d9948" stroke-width="2" stroke-miterlimit="10" d="M213 86v-4"/><path fill="#5d9948" d="M217 82h-8l4-4z"/><path class="st51" d="M240 82h4"/><path d="M244 86v-8l4 4z"/><g id="edit_crm_pencil_1_"><path fill="none" stroke="#000" stroke-width=".9679903200000001" stroke-miterlimit="9.993" d="M259.165 56.962l7.495-7.495 2.97 2.97-7.495 7.495z"/><path d="M261 61.9h-4v-4"/></g><g id="delete_trash_remove_1_"><path class="st10" d="M278.5 53.5h8v8h-8zM277.5 51.5h10v2h-10zM280.5 49.5h4v2h-4z"/></g><g id="delete_trash_remove_2_"><path class="st61" d="M297.5 53.5h8v8h-8zM296.5 51.5h10v2h-10zM299.5 49.5h4v2h-4z"/></g><path class="st48" d="M262.7 69.3l-6.4 6.4M262.7 75.7l-6.4-6.4"/><circle cx="280.9" cy="78.9" r="9.9" fill="#73c17e"/><path class="st47" d="M276.5 79.6l2.7 2.7 6-6"/><path class="st63" d="M312 66c-8.3 0-15 6.7-15 15s6.7 15 15 15 15-6.7 15-15-6.7-15-15-15z"/><circle class="st6" cx="312" cy="81" r="13"/><path class="st63" d="M312.7 84h-1.3l-1.3-10c0-1.1.9-2 2-2s2 .9 2 2l-1.4 10z"/><circle class="st63" cx="312" cy="88" r="2"/><circle cx="341.9" cy="57" r="9" fill="#d8d8d8"/><circle class="st65" cx="336.8" cy="57" r="1.3"/><circle class="st65" cx="341.9" cy="57" r="1.3"/><circle class="st65" cx="347" cy="57" r="1.3"/><path class="st50" d="M341 73.5c-4.1 0-7.5 3.4-7.5 7.5s3.4 7.5 7.5 7.5 7.5-3.4 7.5-7.5-3.4-7.5-7.5-7.5z"/><path class="st10" d="M266.5 128.5c-4.4 0-8 3.6-8 8s3.6 8 8 8 8-3.6 8-8-3.6-8-8-8z"/><circle cx="341" cy="78" r="1.2"/><path class="st51" d="M341 80v5"/><g id="view_chart_analytics_bar_graph_1_"><path class="st10" d="M96.5 1v13.5H112"/><path class="st66" d="M98.5 9.5h2v5h-2zM102.5 2.5h2v12h-2zM106.5 6.5h2v8h-2z"/></g><g id="event_x2C__calendar_x2C__date_x2C__month_x2C__invite_x2C__day_1_"><path d="M151 1V0h-1v1h-8V0h-1v1h-2v13h14V1h-2zm1 12h-12V3h12v10z"/><path d="M148 6h2v2h-2zM148 9h2v2h-2zM145 9h2v2h-2zM142 9h2v2h-2zM142 6h2v2h-2zM145 6h2v2h-2z"/></g><path class="st6" d="M365 62.8c.9 0 1.5-.8 1.5-1.7h-3.1c.1.9.8 1.7 1.6 1.7zM368.5 56l-.2-2.4c-.3-1.6-1.6-3-3.1-3.1h-.5c-1.5.1-2.8 1.5-3.1 3.1l-.2 2.4c-.3 1.6-1.5 2.1-1.5 3.2 0 .4.3.7.7.7h8.7c.4 0 .7-.3.7-.7 0-1.1-1.2-1.6-1.5-3.2z"/><circle class="st6" cx="365" cy="51" r="1"/><g id="owner_user_human_profile_list_options_role_1_"><path d="M365 89.5h-6.5v-16h13V79" fill="none" stroke="#010002" stroke-miterlimit="10"/><path class="st10" d="M361 78.5h1M363 78.5h6M361 80.5h1M363 80.5h5M361 82.5h1M363 82.5h4M361 84.5h1M363 84.5h4"/><circle cx="371" cy="83.1" r="2.6"/><path d="M375.9 91h-9.8c0-2.5 2.2-4.5 4.9-4.5s4.9 2 4.9 4.5z"/></g><path d="M383 73h10v17h-10zM394 79h6v11h-6z"/><path class="st6" d="M385 75h2v2h-2zM389 75h2v2h-2zM385 78h2v2h-2zM389 78h2v2h-2zM385 81h2v2h-2zM389 81h2v2h-2z"/><circle cx="12" cy="103" r="9" fill="#ff0300"/><path class="st6" d="M11.5 98.2l-3.7 3.7c-.4.4-.1 1.1.5 1.1h7.2c.6 0 .9-.6.6-1l-3.6-3.7c-.2-.4-.7-.4-1-.1z"/><path class="st6" d="M12 108c-.6 0-1-.4-1-1v-4.8c0-.1.1-.2.2-.2h1.6c.1 0 .2.1.2.2v4.8c0 .6-.4 1-1 1z"/><path d="M12.3 160.4L33 139.7v46.7c0 .6.4 1 1 1s1-.4 1-1v-46.7l20.7 20.7c.4.4 1 .4 1.4 0s.4-1 0-1.4l-22.4-22.4c-.4-.4-1-.4-1.4 0L10.9 159c-.4.4-.4 1 0 1.4.4.4 1 .4 1.4 0z"/><path d="M61 180c-.5 0-1 .4-1 1v20H8v-20c0-.5-.4-.9-.9-.9s-1.1.4-1.1.9v22h56v-22c0-.5-.4-1-1-1z"/><path class="st6" d="M135 122h-3v1h4v-4h-1zM125.1 122h4.8v1h-4.8zM117 122v1H121.9v-1h-.1zM112 119h-1v4h4v-1h-3zM111 102h1v-3h3v-1h-4zM117.1 98h4.8v1h-4.8zM125.1 98h4.8v1h-4.8zM132 98v1h3v3h1v-4zM135 104.1h1v4.9h-1zM111 104.1h1v4.9h-1zM135 112.1h1v4.9h-1zM111 112.1h1v4.9h-1zM121.6 114c0-.1 0-.2-.1-.3s-.2-.1-.3-.1h-2.3c-.2 0-.3.1-.5.1l1.6-1.7.6-.6c.2-.2.3-.4.5-.6l.3-.6c.1-.2.1-.5.1-.7 0-.3-.1-.6-.2-.8-.1-.3-.3-.5-.5-.7s-.4-.3-.7-.4c-.3-.1-.6-.1-.9-.1s-.6 0-.9.1-.5.2-.7.4-.4.4-.5.7l-.3.9.6.1h.2c.1 0 .2 0 .3-.1s.1-.1.2-.3c.1-.3.2-.5.4-.6s.4-.2.7-.2c.2 0 .3 0 .4.1s.2.1.3.2c.1.1.2.2.2.3s.1.3.1.5 0 .4-.1.5c-.1.2-.1.3-.2.5s-.2.3-.4.5l-.5.5-2.2 2.2c-.1.1-.1.2-.2.2 0 .1-.1.2-.1.3v.4h5l.1-.7zM123.9 109.9l-.2-.2c-.1 0-.2-.1-.3-.1s-.2 0-.3.1-.2.1-.2.2l-.2.2c0 .1-.1.2-.1.3s0 .2.1.3c0 .1.1.2.2.2s.1.1.2.2c.1 0 .2.1.3.1s.2 0 .3-.1c.1 0 .2-.1.2-.2l.2-.2c.1-.1.1-.2.1-.3s0-.2-.1-.3c-.1 0-.2-.1-.2-.2zM123.9 113.5l-.2-.2c-.1 0-.2-.1-.3-.1s-.2 0-.3.1-.2.1-.2.2-.1.1-.2.2c0 .1-.1.2-.1.3s0 .2.1.3c0 .1.1.2.2.2l.2.2c.1.1.2.1.3.1s.2 0 .3-.1c.1 0 .2-.1.2-.2l.2-.2c.1-.1.1-.2.1-.3s0-.2-.1-.3c-.1-.1-.2-.1-.2-.2zM129.6 113.6h-2.3c-.2 0-.3.1-.5.1l1.6-1.7.6-.6c.2-.2.3-.4.5-.6l.3-.6c.1-.2.1-.5.1-.7 0-.3-.1-.6-.2-.8-.1-.3-.3-.5-.5-.7s-.4-.3-.7-.4-.6-.1-.9-.1-.6 0-.9.1-.5.2-.7.4-.4.4-.5.7l-.3.9.7.1h.2c.1 0 .2 0 .3-.1s.1-.1.2-.3c.1-.3.2-.5.4-.6s.4-.2.7-.2c.2 0 .3 0 .4.1.1 0 .2.1.3.2s.2.2.2.3c.1.1.1.3.1.5s0 .4-.1.5c-.1.2-.1.3-.2.5s-.2.3-.4.5c-.1.2-.3.3-.5.5l-2.2 2.2c-.1.1-.1.2-.2.2s-.1.2-.1.3v.4h5v-.7c0-.1 0-.2-.1-.3-.1-.1-.2-.1-.3-.1zM100 122h-3v1h4v-4h-1zM83.1 122h4.8v1h-4.8zM76 122v1H80.9v-1h-.1zM90.1 122H95v1h-4.9zM71 119h-1v4h4v-1h-3zM70 104h1v-3h3v-1h-4zM76.1 100h4.8v1h-4.8zM83.1 100h4.8v1h-4.8zM90.2 100H95v1h-4.8zM97 100v1h3v3h1v-4zM100 106.1h1v4.9h-1zM70 106.1h1v4.9h-1zM100 112.1h1v4.9h-1zM70 112.1h1v4.9h-1zM83.8 112.9s.1-.1.1-.2v-.7H83v-4.5h-1.2l-3.4 4.6.1.6c0 .1.1.1.1.2.1.1.1.1.2.1h3v1.8h1.1V113h.7c.1-.1.1-.1.2-.1zm-2-3.6V112h-2.2l2.2-3.1c.1.1.1.2 0 .4zM86 110.2c0-.1-.1-.2-.2-.2l-.2-.2c-.1-.1-.2-.1-.3-.1-.1 0-.2 0-.3.1-.1.1-.2.1-.2.2l-.2.2c0 .1-.1.2-.1.3s0 .2.1.3c0 .1.1.2.2.2l.2.2c.1 0 .2.1.3.1.1 0 .2 0 .3-.1.1 0 .2-.1.2-.2l.2-.2c.1-.1.1-.2.1-.3s0-.2-.1-.3zM85.9 113.5l-.2-.2c-.1-.1-.2-.1-.3-.1-.1 0-.2 0-.3.1-.1.1-.2.1-.2.2l-.2.2c0 .1-.1.2-.1.3s0 .2.1.3c0 .1.1.2.2.2l.2.2c.1.1.2.1.3.1.1 0 .2 0 .3-.1.1-.1.2-.1.2-.2l.2-.2c.1-.1.1-.2.1-.3s0-.2-.1-.3c-.1-.1-.2-.1-.2-.2zM91.4 114.2c.2-.2.4-.4.5-.7s.2-.6.2-1-.1-.8-.3-1.1c-.2-.3-.5-.5-1-.6.2-.1.3-.1.5-.2s.3-.2.4-.3.2-.3.2-.5c.1-.2.1-.4.1-.6 0-.3-.1-.5-.2-.7s-.2-.4-.4-.6c-.2-.2-.4-.3-.7-.4-.3-.1-.6-.1-.9-.1s-.6 0-.9.1-.5.2-.7.4-.4.4-.5.7l-.3.9.7.1h.2c.1 0 .2 0 .3-.1.1-.1.1-.1.2-.3s.2-.4.4-.6c.2-.2.4-.2.7-.2.3 0 .6.1.8.3.2.2.3.4.3.8 0 .2 0 .3-.1.4 0 .1-.1.2-.2.3s-.3.2-.5.2c-.2.1-.5.1-.8.1v.9c.4 0 .7 0 .9.1s.4.1.5.2.2.2.2.4c0 .1.1.3.1.5 0 .1 0 .3-.1.4s-.1.3-.2.4-.2.2-.4.3c-.2.1-.3.1-.5.1s-.3 0-.5-.1c-.1-.1-.3-.1-.4-.2l-.3-.3c-.1-.1-.1-.2-.2-.3 0-.1-.1-.1-.2-.2-.1 0-.1-.1-.2-.1s-.2 0-.3.1l-.5.2c.1.3.2.6.4.8.1.2.3.4.5.6s.4.3.7.4c.3.1.6.1.9.1s.6 0 .9-.1c.2-.2.4-.3.7-.5zM49.2 117.2l-.2-.2c-.1-.1-.2-.1-.3-.1s-.2 0-.3.1c-.1 0-.2.1-.2.2l-.2.2c0 .1-.1.2-.1.3s0 .2.1.3c0 .1.1.2.2.2l.2.2c.1 0 .2.1.3.1s.2 0 .3-.1.2-.1.2-.2l.2-.2c0-.1.1-.2.1-.3s0-.2-.1-.3c-.1 0-.2-.1-.2-.2zM39.8 111.2h-1l-2.2 1.9.4.5.1.1H37.4s.1 0 .1-.1l1-.9v4.7H37v.9h4v-.9h-1.3l.1-6.2zM46.4 114.5c-.2-.2-.4-.3-.7-.4s-.5-.1-.8-.1c-.2 0-.4 0-.5.1-.2 0-.3.1-.5.2 0-.1.1-.1.1-.2s.1-.1.1-.2l2.1-2.6h-1.1c-.1 0-.3 0-.4.1s-.2.1-.3.2l-1.7 2.3c-.3.4-.5.8-.6 1.1-.1.4-.2.7-.2 1 0 .4.1.7.2 1s.3.6.5.8.5.4.8.5.7.2 1 .2c.4 0 .7-.1 1-.2s.6-.3.8-.5.4-.5.5-.8.2-.6.2-.9c0-.4-.1-.7-.2-.9 0-.3-.1-.5-.3-.7zm-.7 2.2c-.1.2-.2.3-.3.4s-.3.2-.4.3c-.2.1-.3.1-.5.1s-.4 0-.6-.1-.3-.2-.4-.3-.2-.3-.2-.4c-.1-.2-.1-.3-.1-.5s0-.4.1-.5.1-.3.3-.4c.1-.1.3-.2.4-.3.2-.1.3-.1.5-.1s.4 0 .5.1c.2.1.3.1.4.3.1.1.2.3.3.4.1.2.1.4.1.6 0 .1-.1.3-.1.4zM49.2 113.7l-.2-.2c-.1-.1-.2-.1-.3-.1s-.2 0-.3.1c-.1 0-.2.1-.2.2l-.2.2c0 .1-.1.2-.1.3s0 .2.1.3c0 .1.1.2.2.2l.2.2c.1 0 .2.1.3.1s.2 0 .3-.1c.1 0 .2-.1.2-.2l.2-.2c0-.1.1-.2.1-.3s0-.2-.1-.3l-.2-.2zM55.3 112.6c-.1-.3-.3-.5-.5-.8s-.5-.4-.8-.5-.6-.2-1-.2-.7.1-1 .2-.6.3-.8.5-.4.5-.5.7c-.1.3-.2.6-.2.9s.1.6.2.9.3.5.5.6c.2.2.4.3.6.4.2.1.5.1.7.1s.4 0 .6-.1.4-.1.6-.2c0 .1-.1.1-.1.2s-.1.1-.2.2l-2.2 2.8h1.1c.1 0 .3 0 .4-.1s.2-.1.3-.2l1.7-2.4c.1-.2.2-.4.3-.5.1-.2.2-.4.3-.5s.1-.4.2-.6.1-.4.1-.6c-.1-.2-.2-.5-.3-.8zm-1.1 1.3c-.1.1-.1.3-.2.4-.1.1-.2.2-.4.3-.2.1-.3.1-.5.1-.4 0-.7-.1-.9-.3-.2-.2-.3-.5-.3-.9 0-.2 0-.3.1-.5s.1-.3.2-.4c.1-.1.2-.2.4-.3.1-.1.3-.1.5-.1s.3 0 .5.1.3.1.4.2.2.2.3.4c.1.2.1.3.1.5-.1.2-.1.3-.2.5zM60 122h-3v1h4v-4h-1zM43.1 122h4.8v1h-4.8zM36 122v1H40.9v-1h-.1zM50.1 122H55v1h-4.9zM31 119h-1v4h4v-1h-3zM30 110h1v-3h3v-1h-4zM36.1 106h4.8v1h-4.8zM43.1 106h4.8v1h-4.8zM50.2 106H55v1h-4.8zM57 106v1h3v3h1v-4zM60 112.1h1v4.9h-1zM30 112.1h1v4.9h-1zM183 103.1l-4-2.7 4-2.4v5.1zM212 111.9h.9V106H207v1h5v4.9zm-6 1.1v-9h-1v2h-2v1h2v7h7v2h1v-2h2v-1h-9z"/><path class="st45" d="M200.1 112.5s.2 6 6.3 6.3l-1.5-2.4M218.1 108.1s-.1-6-6.3-6.3l1.5 2.4"/><path class="st6" d="M184 115.9h-13c-.6 0-1-.4-1-1V107c0-.6.4-1 1-1h13c.6 0 1 .4 1 1v7.9c0 .6-.5 1-1 1z"/><path class="st45" d="M182.2 100.6c4.3-.1 6.3 2.4 6.3 5.3v4"/><g id="Group_250_1_" transform="translate(-10.932 -6.004)"><path id="Path_610_1_" class="st6" d="M169.9 117l-4-4v3h-8v1h12z"/><path id="Path_611_1_" class="st6" d="M157.9 120h12v1h-8v3l-4-4z"/></g><path id="Path_524_1_" class="st6" d="M241 111h-4v-8h-1v8h-4l4.5 4.8 4.5-4.8zm2 3v4h-13v-4h-1v5h15v-5h-1z"/><path class="st45" d="M284.3 103.3l7.2 7.2-7.2 7.2M265.7 117.7l-7.2-7.2 7.2-7.2"/><g id="Group_176" transform="translate(-216.5 -252.5)"><circle class="st45" cx="311.5" cy="110.8" r="8.5" id="Ellipse_2" transform="translate(217.5 253.5)"/><path id="Path_536" class="st69" d="M529 362.4v5.9m0-9v1.8"/></g><path id="Untitled-8" d="M332.9 105.1l14.3 14.3m0-14.3l-14.3 14.3" fill="none" stroke="#fff" stroke-width="1.2" stroke-linecap="round" stroke-miterlimit="10"/><path class="st71" d="M361.9 105.2l9.3 9.2M371.2 105.1l-9.3 9.3"/><circle cx="83.5" cy="143.5" r="10.5" fill="#5bb57c"/><path class="st54" d="M79.3 143.3l3.2 3.2 6.1-6.2"/><path class="st73" d="M115.2 140l-7 7M115.2 147l-7-7"/><path id="SVGID_11_" d="M130 146.6v3.4h3.4l6.9-6.9-3.5-3.4z"/><path id="SVGID_15_" transform="rotate(-45.017 141.198 138.751)" d="M139.5 136.5h3.4v4.5h-3.4z"/><path class="st6" d="M393.5 107l-3.5 4-3.5-4h7z" id="navi_down_solid_1_"/><path class="st74" d="M398 135.4c-1 1.6-2.7 2.5-4.7 2.5-3 0-5.5-2.4-5.5-5.5M388.8 129.4c1-1.5 2.7-2.4 4.5-2.4 3 0 5.5 2.4 5.5 5.5"/><path class="st74" d="M396.6 131.2l2.2 1.7 1.8-2.2M390 133.4l-2.4-1.5-1.5 2.5"/><path class="st45" d="M369.2 127.9h6v-1c0-.6-.4-1-1-1h-7c-.6 0-1 .4-1 1v9c0 .6.4 1 1 1h1v-8c0-.6.5-1 1-1z"/><path class="st45" d="M368.2 136.4v1.5c0 .6.4 1 1 1h7c.6 0 1-.4 1-1v-9c0-.6-.4-1-1-1h-1.5"/><path d="M202.6 139h-.6v-3.3c0-2.8-1.9-5.4-4.6-6-3.9-.9-7.4 2.1-7.4 5.8v3c-1 0-3 1.2-3 2.7v8.1c0 2 1.7 3.7 3.7 3.7h11.9c.8 0 1.2-.7 1.8-1.3.5-.5.6-1.7.6-2.5v-8.1c-.1-1.5-.9-2.1-2.4-2.1zm-11.6-3.3c0-2.4 1.7-4.7 4.1-5.1 3.2-.6 5.9 1.9 5.9 4.9v3.5h-10v-3.3zm10.3 16.3h-10.7c-1.4 0-2.6-1.2-2.6-2.6v-8.2c0-1 1.5-1.2 2.6-1.2h12.1c.7 0 1.3.6 1.3 1.3v8c0 1.5-1.2 2.7-2.7 2.7zm-4.7-9.5c-1 0-2.3.8-2.3 1.9 0 .8.7 1.4.7 1.7v3.9h2v-3.9c0-.3 1.3-.9 1.3-1.7-.1-1-.7-1.9-1.7-1.9z" id="lock_1_"/><circle id="SVGID_6_" class="st10" cx="80.2" cy="33.3" r="8"/><circle class="st33" cx="80.2" cy="33.3" r="8"/><path id="SVGID_4_" d="M76.7 32.8h7v1h-7z"/><path d="M76.7 32.8h7v1h-7z"/><path class="st33" d="M76.7 32.8h7v1h-7z"/><path class="st10" d="M266.5 133v7M270 136.5h-7"/><path class="st6" d="M306 136h13v1h-13zM296 136h-6v-6h-1v6h-6v1h6v6h1v-6h6zM340 131v10h-10v-10h10m1-1h-12v12h12v-12z"/><path class="st45" d="M340 127.5h3.5v3.5M340 144.5h3.5V141M330 127.5h-3.5v3.5M330 144.5h-3.5V141"/><path fill="none" stroke="#4da4f9" stroke-width=".9679903200000001" stroke-miterlimit="9.993" d="M163.366 140.861l7.495-7.495 2.97 2.97-7.495 7.495z"/><path class="st31" d="M165.2 145.8h-4v-4"/><path class="st77" d="M392 151v7h2v-7h-2zm0 10h2v-2h-2v2z"/><path class="st77" d="M393.1 146c.1 0 .2 0 .3.2.4.8 3.3 5.5 6.2 10 2.2 3.6 4.3 6.9 4.5 7.3.1.1.1.2 0 .3 0 .1-.2.2-.3.2h-21.7c-.1-.1-.1-.2 0-.4.3-.8 4.1-7 6.9-11.6 1.9-3 3.5-5.4 3.7-5.7.1-.3.3-.3.4-.3m-.1-1c-.4 0-.8.2-1.1.7-1.7 2.8-9.4 15.1-10.7 17.3-.5.9.1 2 1.1 2h21.3c1 0 1.7-1 1.1-2 1 1.5-9.2-14.9-10.6-17.3-.4-.5-.7-.7-1.1-.7zm.1 1c.1 0 .2 0 .3.2.4.8 3.3 5.5 6.2 10"/><path class="st49" d="M350.6 183.2h-10.4v-17h2.6v-.1c0-7.6 6.1-13.7 13.7-13.7s13.7 6.1 13.7 13.7-6.1 13.7-13.7 13.7c-1.2 0-2.3-.1-3.5-.4v1.5l-2.4 2.3zm-9.4-1h8.4V180h2.3v-12.6h-10.7v14.8zm9.5-1.2v.6l.7-.6h-.7zm2.3-2.7c.7.2 1.4.3 2 .4-.8-.8-1.4-1.6-2-2.3v1.9zm9.9-7.4c-.9 2.8-2.5 5.4-4.9 7.9 4.7-.5 8.6-3.6 10.3-7.9h-5.4zm-5.9 0v7.3c2.3-2.3 3.9-4.8 4.8-7.3H357zm-4 3.6c.8 1.2 1.8 2.4 2.9 3.6v-7.3H353v3.7zm10.1-4.7h5.4c.3-1.2.5-2.4.5-3.6 0-1.3-.2-2.5-.5-3.7H363c.3 1.3.5 2.7.5 4.1 0 1.1-.1 2.2-.4 3.2zm-6.1 0h5.1c.3-1.1.4-2.1.4-3.2 0-1.4-.2-2.8-.5-4.1h-5v7.3zm-4 0h2.9v-7.3h-5c-.3 1.2-.5 2.5-.5 3.8h2.5v3.5h.1zm-9.2-3.5h5.6c0-1.3.2-2.6.5-3.8h-5.5c-.4 1.2-.5 2.4-.5 3.7-.1 0-.1 0-.1.1zm19-4.9h5.4c-1.6-4-5.3-7-9.7-7.8 1.2 1.5 3.2 4.3 4.3 7.8zm-5.8 0h4.7c-1.4-4.1-4-7.1-4.7-7.9v7.9zm-5.7 0h4.7v-7.8c-.9.8-3.4 3.8-4.7 7.8zm-6.6 0h5.4c1.1-3.6 3.1-6.3 4.3-7.8-4.4.8-8.1 3.8-9.7 7.8z"/><path d="M302.1 157.7l-6 3.4c-.3.2-.5.5-.5.9v6.8c0 .4.2.7.5.9l6 3.4c.3.2.7.2 1.1 0l6-3.4c.3-.2.5-.5.5-.9V162c0-.4-.2-.7-.5-.9l-6-3.4c-.4-.1-.8-.1-1.1 0z" fill="#ffc000"/><path class="st79" d="M304.2 176.3c-.3 0-.6-.1-.9-.2l-6.1-3.5c-.5-.3-.9-.9-.9-1.5v-6.9c0-.6.3-1.2.9-1.4l5.5-3.5c.5-.3 1.2-.3 1.7 0l5 3.1c.2.1.3.3.3.5s-.1.4-.3.5l-5.1 3.7c-.2.2-.5.2-.7.1l-4.1-1.9c-.3-.2-.5-.5-.3-.9.2-.3.5-.5.9-.3l3.8 1.8 4-2.9-4.2-2.6c-.1-.1-.3-.1-.4 0l-5.5 3.5c-.1.1-.2.2-.2.3v6.9c0 .2.1.3.2.3l6.1 3.5c.1.1.3.1.4 0l6.1-3.5c.1-.1.2-.2.2-.3v-14.8c0-.4.3-.6.6-.6.4 0 .6.3.6.6v14.8c0 .6-.3 1.2-.9 1.5l-6.1 3.5c0 .1-.3.2-.6.2z"/><path d="M323.2 162.2l6 3.4c.3.2.5.5.5.9v6.8c0 .4-.2.7-.5.9l-6 3.4c-.3.2-.7.2-1.1 0l-6-3.4c-.3-.2-.5-.5-.5-.9v-6.8c0-.4.2-.7.5-.9l6-3.4c.4-.2.8-.2 1.1 0z" fill="#ffdb80"/><path class="st79" d="M321.1 180.7c-.3 0-.6-.1-.9-.2l-6.1-3.5c-.5-.3-.9-.9-.9-1.5v-14.8c0-.4.3-.6.6-.6.4 0 .6.3.6.6v14.8c0 .2.1.3.2.3l6.1 3.5c.1.1.3.1.4 0l6.1-3.5c.1-.1.2-.2.2-.3v-6.9c0-.2-.1-.3-.2-.3l-5.5-3.4c-.1-.1-.3-.1-.4 0l-4.2 2.6 4 2.9 3.8-1.8c.3-.2.7 0 .9.3.2.3 0 .7-.3.9l-4.1 1.9c-.2.1-.5.1-.7-.1l-5.1-3.7c-.2-.1-.3-.3-.3-.5s.1-.4.3-.5l5-3.1c.5-.3 1.2-.3 1.7 0l5.5 3.5c.5.3.9.9.9 1.4v6.9c0 .6-.3 1.2-.9 1.5l-6.1 3.5c.1.1-.2.1-.6.1z"/><path d="M266.6 183.2h-10.4v-17h2.6v-.1c0-7.6 6.1-13.7 13.7-13.7s13.7 6.1 13.7 13.7-6.1 13.7-13.7 13.7c-1.2 0-2.3-.1-3.5-.4v1.5l-2.4 2.3zm-9.4-1h8.4V180h2.3v-12.6h-10.7v14.8zm9.5-1.2v.6l.7-.6h-.7zm2.3-2.7c.7.2 1.4.3 2 .4-.8-.8-1.4-1.6-2-2.3v1.9zm9.9-7.4c-.9 2.8-2.5 5.4-4.9 7.9 4.7-.5 8.6-3.6 10.3-7.9h-5.4zm-5.9 0v7.3c2.3-2.3 3.9-4.8 4.8-7.3H273zm-4 3.6c.8 1.2 1.8 2.4 2.9 3.6v-7.3H269v3.7zm10.1-4.7h5.4c.3-1.2.5-2.4.5-3.6 0-1.3-.2-2.5-.5-3.7H279c.3 1.3.5 2.7.5 4.1 0 1.1-.1 2.2-.4 3.2zm-6.1 0h5.1c.3-1.1.4-2.1.4-3.2 0-1.4-.2-2.8-.5-4.1h-5v7.3zm-4 0h2.9v-7.3h-5c-.3 1.2-.5 2.5-.5 3.8h2.5v3.5h.1zm-9.2-3.5h5.6c0-1.3.2-2.6.5-3.8h-5.5c-.4 1.2-.5 2.4-.5 3.7-.1 0-.1 0-.1.1zm19-4.9h5.4c-1.6-4-5.3-7-9.7-7.8 1.2 1.5 3.2 4.3 4.3 7.8zm-5.8 0h4.7c-1.4-4.1-4-7.1-4.7-7.9v7.9zm-5.7 0h4.7v-7.8c-.9.8-3.4 3.8-4.7 7.8zm-6.6 0h5.4c1.1-3.6 3.1-6.3 4.3-7.8-4.4.8-8.1 3.8-9.7 7.8z"/><path d="M218.1 157.7l-6 3.4c-.3.2-.5.5-.5.9v6.8c0 .4.2.7.5.9l6 3.4c.3.2.7.2 1.1 0l6-3.4c.3-.2.5-.5.5-.9V162c0-.4-.2-.7-.5-.9l-6-3.4c-.4-.1-.8-.1-1.1 0z" fill="#c2c2c2"/><path class="st79" d="M220.2 176.3c-.3 0-.6-.1-.9-.2l-6.1-3.5c-.5-.3-.9-.9-.9-1.5v-6.9c0-.6.3-1.2.9-1.4l5.5-3.5c.5-.3 1.2-.3 1.7 0l5 3.1c.2.1.3.3.3.5s-.1.4-.3.5l-5.1 3.7c-.2.2-.5.2-.7.1l-4.1-1.9c-.3-.2-.5-.5-.3-.9.2-.3.5-.5.9-.3l3.8 1.8 4-2.9-4.2-2.6c-.1-.1-.3-.1-.4 0l-5.5 3.5c-.1.1-.2.2-.2.3v6.9c0 .2.1.3.2.3l6.1 3.5c.1.1.3.1.4 0l6.1-3.5c.1-.1.2-.2.2-.3v-14.8c0-.4.3-.6.6-.6.4 0 .6.3.6.6v14.8c0 .6-.3 1.2-.9 1.5l-6.1 3.5c0 .1-.3.2-.6.2z"/><path d="M239.2 162.2l6 3.4c.3.2.5.5.5.9v6.8c0 .4-.2.7-.5.9l-6 3.4c-.3.2-.7.2-1.1 0l-6-3.4c-.3-.2-.5-.5-.5-.9v-6.8c0-.4.2-.7.5-.9l6-3.4c.4-.2.8-.2 1.1 0z" fill="#dcdcdc"/><path class="st79" d="M237.1 180.7c-.3 0-.6-.1-.9-.2l-6.1-3.5c-.5-.3-.9-.9-.9-1.5v-14.8c0-.4.3-.6.6-.6.4 0 .6.3.6.6v14.8c0 .2.1.3.2.3l6.1 3.5c.1.1.3.1.4 0l6.1-3.5c.1-.1.2-.2.2-.3v-6.9c0-.2-.1-.3-.2-.3l-5.5-3.4c-.1-.1-.3-.1-.4 0l-4.2 2.6 4 2.9 3.8-1.8c.3-.2.7 0 .9.3s0 .7-.3.9l-4.1 1.9c-.2.1-.5.1-.7-.1l-5.1-3.7c-.2-.1-.3-.3-.3-.5s.1-.4.3-.5l5-3.1c.5-.3 1.2-.3 1.7 0l5.5 3.5c.5.3.9.9.9 1.4v6.9c0 .6-.3 1.2-.9 1.5l-6.1 3.5c.1.1-.2.1-.6.1z"/><g id="delete_trash_remove_3_"><path class="st45" d="M144.5 31.3h8v8h-8zM143.5 29.3h10v2h-10zM146.5 27.3h4v2h-4z"/></g><path class="st6" d="M395.7 187.7c-2.3 0-4.4-.9-6-2.5l-4.7-4.7c-.5-.5-.8-1.3-.8-2s.3-1.5.9-2c.5-.5 1.3-.8 2-.8.8 0 1.5.3 2 .8l4.3 4.3c.5.5 1.3.5 1.8 0 .2-.2.4-.6.4-.9s-.1-.7-.4-.9l-4.7-4.7c-1.3-1.3-3-2-4.9-2-1.9 0-3.6.7-5 2.1-1.3 1.3-2 3.1-2 5 0 1.8.8 3.5 2.1 4.8 1.3 1.3 3 2 4.9 2 .7 0 1.3-.1 2-.3.4-.1.9.1 1 .5s-.1.9-.5 1c-.8.2-1.6.3-2.4.3-2.2 0-4.4-.9-6-2.4-1.6-1.6-2.5-3.7-2.6-5.9 0-1.2.2-2.3.6-3.4.4-1 1-2 1.8-2.8s1.7-1.4 2.7-1.9c1.1-.5 2.2-.7 3.4-.7 2.3 0 4.4.9 6 2.5l4.7 4.7c.5.5.8 1.3.8 2.1s-.3 1.5-.9 2c-1.1 1.1-3 1.1-4.1 0l-4.3-4.3c-.5-.5-1.3-.5-1.8 0-.2.2-.4.6-.4.9s.1.7.4.9l4.7 4.7c1.3 1.3 3 2 4.9 2s3.6-.7 4.9-2 2-3.1 2-4.9c0-1.9-.7-3.6-2-4.9s-3.1-2-4.9-2c-.6 0-1.2.1-1.7.2-.1 0-.2 0-.2.1-.4.1-.9-.1-1-.5s.1-.9.5-1c.1 0 .2-.1.3-.1.7-.2 1.4-.3 2.1-.3 1.2 0 2.3.2 3.3.7 1 .4 1.9 1 2.7 1.8s1.4 1.7 1.8 2.7c.4 1.1.7 2.2.7 3.3 0 2.3-.9 4.4-2.5 6-1.4 1.6-3.6 2.5-5.9 2.5z"/><path d="M149 176h-10c-1.1 0-2-.9-2-2v-10c0-1.1.9-2 2-2h10c1.1 0 2 .9 2 2v10c0 1.1-.9 2-2 2z" fill="none" stroke="#787d83" stroke-width="2" stroke-miterlimit="10"/><path d="M174 176h-10c-1.1 0-2-.9-2-2v-10c0-1.1.9-2 2-2h10c1.1 0 2 .9 2 2v10c0 1.1-.9 2-2 2z" fill="#f0f1f2" stroke="#d0d7df" stroke-width="2" stroke-miterlimit="10"/><path class="st85" d="M188 174v-10c0-1.1.9-2 2-2h10c1.1 0 2 .9 2 2v10c0 1.1-.9 2-2 2h-10c-1.1 0-2-.9-2-2z"/><path class="st85" d="M201 163v10c0 1.1-.9 2-2 2h-8c-1.1 0-2-.9-2-2v-8c0-1.1.9-2 2-2h10m-.3-2H189c-1.1 0-2 .9-2 2v12c0 1.1.9 2 2 2h12c1.1 0 2-.9 2-2v-11.7c0-1.3-1-2.3-2.3-2.3z"/><path class="st54" d="M191.8 168.9l2.4 2.5 4.9-5.1"/><g id="Page-1"><g id="Color-Picker" transform="translate(-1558 -1097)"><g id="Group-6-Copy-8" transform="translate(1558 1097)"><g id="color-wheel"><path id="Path" d="M120.8 159.9l-1.1 1.7 1.1 1.5 4.1 1.7 2-1 .2-1.3c-1.6-1.6-3.9-2.6-6.3-2.6z" fill="#ff4b00"/><path id="Path_1_" class="st87" d="M127.1 162.6l-2.2 2.2 1.7 4.1 1.7 1.1 1.5-1.1c0-2.5-1.1-4.7-2.7-6.3z"/><path id="Path_2_" d="M126.6 168.9l-1.7 4.1.1 2.2h2.1c1.6-1.6 2.7-3.9 2.7-6.3h-3.2z" fill="#6b0"/><path id="Path_3_" d="M124.9 173l-4.1 1.7-1.1 1.7 1.1 1.5c2.5 0 4.7-1 6.3-2.7l-2.2-2.2z" fill="#00cc71"/><path id="Path_4_" d="M116.7 173h-2.1l-.2 2.3c1.6 1.6 3.9 2.7 6.3 2.7v-3.2l-4-1.8z" fill="#0095ff"/><path id="Path_5_" d="M114.9 168.9l-1.5-1.1-1.7 1.1c0 2.5 1 4.7 2.7 6.3l2.2-2.2-1.7-4.1z" fill="#6b77e8"/><path id="Path_6_" d="M115.8 162.8l-1.3-.3c-1.6 1.6-2.7 3.9-2.7 6.3h3.2l1.7-4.1-.9-1.9z" fill="#b760ea"/><path id="Path_7_" d="M120.8 163.1v-3.2c-2.5 0-4.7 1-6.3 2.7l2.2 2.2c1-1.1 2.5-1.7 4.1-1.7z" fill="#ff193d"/><path id="Path_8_" d="M120.8 163.1l-1.1 1.6 1.1 1.6 1.9.8 2.1-1 .1-1.2a5.54 5.54 0 00-4.1-1.8z" fill="#ff7816"/><path id="Path_9_" d="M124.9 164.8l-2.2 2.2.8 1.9 1.5 1.1 1.7-1.1c-.1-1.6-.8-3.1-1.8-4.1z" fill="#fdbf00"/><path id="Path_10_" d="M123.4 168.9l-.8 1.9.2 1.3 2 .9c1.1-1.1 1.7-2.5 1.7-4.1h-3.1z" fill="#7d0"/><path id="Path_11_" d="M122.6 170.8l-1.9.8-1.1 1.6 1.1 1.5c1.6 0 3-.7 4.1-1.7l-2.2-2.2z" fill="#00dd7b"/><path id="Path_12_" d="M118.9 170.8l-2.2.1v2.1c1.1 1.1 2.5 1.7 4.1 1.7v-3.2l-1.9-.7z" fill="#3aaaff"/><path id="Path_13_" d="M118.1 168.9l-1.5-1.1-1.7 1.1c0 1.6.7 3 1.7 4.1l2.2-2.2-.7-1.9z" fill="#7984eb"/><path id="Path_14_" d="M118.8 164.8h-2.1c-1.1 1.1-1.7 2.5-1.7 4.1h3.2l.8-1.9-.2-2.2z" fill="#cb75f6"/><path id="Path_15_" d="M116.7 164.8l2.2 2.2 1.9-.8V163c-1.6.1-3.1.7-4.1 1.8z" fill="#ff4949"/><path id="Path_16_" class="st87" d="M122.6 167c-.5-.5-1.1-.8-1.9-.8l-1.1 1 1.1 1.6 2-.9-.1-.9z"/><path id="Path_17_" d="M123.4 168.9c0-.7-.3-1.4-.8-1.9l-1.9 1.9 1.7 1.1 1-1.1z" fill="#ffd400"/><path id="Path_18_" d="M122.6 170.8c.5-.5.8-1.1.8-1.9h-2.6l.9 2 .9-.1z" fill="#89f900"/><path id="Path_19_" d="M120.8 168.9l-1.1 1.5 1.1 1.2c.7 0 1.4-.3 1.9-.8l-1.9-1.9z" fill="#00ee84"/><path id="Path_20_" d="M120.8 168.9l-1.6.5-.3 1.3c.5.5 1.1.8 1.9.8v-2.6z" fill="#73bcff"/><path id="Path_21_" d="M118.1 168.9c0 .7.3 1.4.8 1.9l1.9-1.9-1.5-.5-1.2.5z" fill="#979fef"/><path id="Path_22_" d="M118.9 167c-.5.5-.8 1.1-.8 1.9h2.6l-.5-1.6-1.3-.3z" fill="#da90f8"/><path id="Path_23_" d="M120.8 166.3c-.7 0-1.4.3-1.9.8l1.9 1.9v-2.7z" fill="#ff6c6c"/></g></g></g></g><path id="Rectangle" d="M94.4 160.5h0c4.4 0 8 3.6 8 8h0c0 4.4-3.6 8-8 8h0c-4.4 0-8-3.6-8-8h0c0-4.4 3.6-8 8-8z" fill="#f3f3f3" stroke="#a5a5a5"/><path id="Rectangle_1_" fill-rule="evenodd" clip-rule="evenodd" fill="#a5a5a5" d="M99.2 162.4l.7.7-10.2 12.2-.7-.6z"/><g id="Page-1_1_"><g id="Color-Picker_1_" transform="translate(-895 -1489)"><g id="noun_Color-Picker_2968686-Copy-15" transform="rotate(44 -1389.465 1863.376)"><g id="Group" transform="translate(0 .12)"><path id="Shape" d="M164.8 69.6c-.9 0-1.7.8-1.7 1.7v1.5c-.6 0-1.1.6-1.1 1.2v.2c0 .7.6 1.2 1.2 1.2h.1v6.8c0 .5.2 1 .6 1.3v.5c0 .3.1.6.3.9s.5.4.9.4.7-.2.9-.4c.2-.3.3-.6.3-.9v-.6c.3-.3.6-.8.6-1.3v-6.8h.1c.7 0 1.2-.6 1.2-1.2V74c0-.6-.5-1.2-1.1-1.2v-1.5c0-.9-.8-1.7-1.7-1.7h-.6zm0 .7h.4c.5 0 .9.4.9.9v1.5h-2.2v-1.5c0-.5.4-.9.9-.9zm-1.6 3.2h3.6c.3 0 .5.2.5.5v.2c0 .3-.2.5-.5.5h-3.6c-.3 0-.5-.2-.5-.5V74c.1-.3.3-.5.5-.5zm.9 1.9h1.9v6.8c0 .4-.2.7-.4.9-.1.1-.1.2-.1.3v.6c0 .2-.1.4-.1.4-.1.1-.1.1-.3.1s-.2 0-.3-.1-.1-.2-.1-.4v-.7c0-.1-.1-.2-.1-.3-.3-.2-.4-.5-.4-.9l-.1-6.7z"/></g></g></g></g><path id="Fill-1" class="st37" d="M69.2 197.8l3.9 3.5v-7z"/><path id="Fill-2" class="st37" d="M80.1 185.3v7l4-3.5z"/><g id="Group-7" transform="translate(1 2.984)"><path id="Stroke-3" class="st111" d="M81.6 190.8v.6c0 1.9-1.5 3.4-3.4 3.4h-6.6"/><path id="Stroke-5" class="st111" d="M69.6 189.8v-.6c0-1.9 1.5-3.4 3.4-3.4h6.6"/></g><g id="Group_13" transform="translate(-.9 -.9)"><path id="Path_261" d="M390.6 199c-5.8 0-10.4 4.7-10.4 10.5 0 2.4.8 4.7 2.3 6.5l8.2-5.7V199h-.1z" fill="#ffc600"/><circle id="Ellipse_19" cx="390.7" cy="209.7" r="11.2" fill="none" stroke="#4d4d4d" stroke-width="2" stroke-miterlimit="10"/><path id="Path_262" d="M390.7 203.2v6.6l-4 3.3" fill="none" stroke="#4d4d4d" stroke-width="2" stroke-linecap="round" stroke-linejoin="round" stroke-miterlimit="10"/></g><path d="M244.4 131.2c-4.7 0-8.5 3.8-8.5 8.5s3.8 8.5 8.5 8.5 8.5-3.8 8.5-8.5-3.8-8.5-8.5-8.5z" fill="#48a8fd"/><path class="st45" d="M244.4 136.2v7M247.9 139.7h-7"/><path d="M221.4 131.2c-4.7 0-8.5 3.8-8.5 8.5s3.8 8.5 8.5 8.5 8.5-3.8 8.5-8.5-3.8-8.5-8.5-8.5z" fill="#42bb63"/><path class="st45" d="M221.4 136.2v7M224.9 139.7h-7"/><ellipse class="st45" cx="102.3" cy="189.5" rx="3.4" ry="4"/><path class="st45" d="M110.8 195.6s.1 2-.8 3.8-14.5 1-14.5 0c0-2 3-5.9 6.6-5.9 1.5 0 3 .6 4.1 1.3l.9.7"/><ellipse class="st45" cx="111.9" cy="189.7" rx="2.3" ry="3"/><path class="st45" d="M114.7 193.8c-.8-.8-1.8-1.2-2.9-1.2-1.2 0-2.2.6-3 1.4M108.8 196.8l2-1.6 1.8 1.5"/><path id="Fill-1_1_" d="M129.6 186.5c3.2 0 5.8 2.6 5.8 5.8s-2.6 5.8-5.8 5.8-5.8-2.6-5.8-5.8 2.6-5.8 5.8-5.8" fill-rule="evenodd" clip-rule="evenodd" fill="#7f7f7f"/><path id="Stroke-4" fill="none" stroke="#fff" stroke-width="1.2" d="M129.2 188.4v4.4l2.2 2.1"/><path class="st53" d="M367 221h-26v-24"/><path class="st53" d="M345 212h4v9h-4zM353 207h4v14h-4zM361 200h4v21h-4z"/><path d="M151 184c-4.9 0-9 4.1-9 9s4.1 9 9 9 9-4.1 9-9-4.1-9-9-9z" fill="#49a2ea"/><path class="st69" d="M151 192v6M151 188v2"/><path d="M129 233c-4.9 0-9 4.1-9 9s4.1 9 9 9 9-4.1 9-9-4.1-9-9-9z"/><path class="st69" d="M129 241v6M129 237v2"/><g id="Page-1_3_"><g id="suggested-2_1_" transform="translate(-883 -21)"><g id="noun_Error_1582574_1_" transform="translate(883 21)"><path id="Shape_2_" d="M174 197.8c-.5 0-.9-.4-.9-.9s.4-.9.9-.9.9.4.9.9-.4.9-.9.9zm7.8-.9l-5.3-8.6c-.3-.4-.6-.8-1-1.1s-.9-.5-1.5-.5-1.1.2-1.5.5-.7.7-1 1.1l-5.3 8.7c-.4.8-.4 1.8.1 2.6.4.7 1.2 1.1 2 1.1h11.5c.8 0 1.6-.4 2-1.1.4-.9.4-1.9 0-2.7zm-7.8-1.7c-.3 0-.5-.3-.6-.6l-.3-2.6c0-.4.4-.9.9-.9s.9.4.9.9l-.3 2.6c-.1.4-.3.6-.6.6z" fill-rule="evenodd" clip-rule="evenodd" fill="#e43c2f"/></g></g></g><path d="M194.1 190.9v2.1h-.9c-.7 0-1.2.5-1.2 1.2v5.7c0 .6.5 1.2 1.2 1.2h9.6c.7 0 1.2-.5 1.2-1.2v-5.7c0-.6-.5-1.2-1.2-1.2h-.9v-2.1c0-2.1-1.7-3.8-3.9-3.8s-3.9 1.7-3.9 3.8zm1.5 2.1v-2.1c0-1.3 1.1-2.3 2.4-2.3s2.4 1 2.4 2.3v2.1h-4.8zm1.2 3.2c0-.6.5-1.2 1.2-1.2s1.2.5 1.2 1.2c0 .4-.2.8-.5 1 0 0 .1.7.2 1.5 0 .2-.2.4-.4.4h-.9c-.2 0-.4-.2-.4-.4l.2-1.5c-.4-.3-.6-.6-.6-1z" fill-rule="evenodd" clip-rule="evenodd" fill="#05b9a8"/><g id="Page-1_2_"><g id="suggested-2" transform="translate(-965 -19)"><g id="iconfinder_ic_error_48px_351983" transform="translate(964 18)"><path id="Shape_1_" d="M223.7 186c-4.6 0-8.3 3.7-8.3 8.3s3.7 8.3 8.3 8.3 8.3-3.7 8.3-8.3c.1-4.6-3.7-8.3-8.3-8.3zm.9 12.5h-1.7v-1.7h1.7v1.7zm0-3.3h-1.7v-5h1.7v5z" fill="#ffa209"/></g></g></g><path class="st123" d="M3.5 211.4h11.9v8H3.5z"/><path class="st123" d="M3.5 211.4l6 5 6-5"/><path class="st124" d="M53.6 216.8h-1v1h1zM55.6 216.8h-1v1h1zM57.6 216.8h-1v1h1zM53.6 218.8h-1v1h1zM55.6 218.8h-1v1h1zM57.6 218.8h-1v1h1z"/><path class="st123" d="M60.1 214.8v6c0 .3-.2.5-.5.5h-9c-.3 0-.5-.2-.5-.5v-6M63.5 214c0-2-1.9-3.6-4.3-3.6h-8.1c-2.4 0-4.3 1.6-4.3 3.7 0 .1.1.3.3.3h5.3c.2 0 .3-.1.3-.3v-.7c0-.5.4-1 1-1h3c.6 0 1 .4 1 1v.7c0 .1.1.3.3.3h5.3c.1-.1.2-.2.2-.4zM76.3 221.3l-1.2 3h9l-1.2-3M86.1 214.3h-13v7h3.2l.8-2h5l.8 2h3.2z"/><path class="st123" d="M82.9 221.3l-.8-2h-5l-.8 2M75.6 217.3h2M83.1 213.8v-2.5h-7v2.5M98.1 217.3h10v7h-10zM97.1 214.3h12v3h-12zM103.1 214.8v10M103.1 213.9s.9-4.1 3.2-3.6c4.2 1-.2 3.9-.2 3.9M102.8 213.9s-.6-4.1-2.9-3.6c-4.2 1-.1 3.9-.1 3.9M125.1 209.2c-2.8 0-5 2.4-5 5.3 0 1.2.7 3.1 2.2 5.8 1 1.9 2.8 4.8 2.8 4.8s1.8-2.9 2.8-4.8c1.5-2.8 2.2-4.7 2.2-5.8 0-3-2.2-5.3-5-5.3z"/><circle cx="125.1" cy="214.3" r="1.5" fill="#999" stroke="#999" stroke-miterlimit="10"/><path class="st123" d="M30.7 217.6c-1.4-1.4-2.8-3-2.2-3.6.9-.9 1.7-1.5.1-3.5s-2.7-.5-3.6.4c-1 1-.1 4.8 3.7 8.5 3.7 3.7 7.5 4.7 8.5 3.7.9-.9 2.4-2 .4-3.6s-2.6-.8-3.5.1c-.4.6-2-.6-3.4-2z"/><path class="st126" d="M145.3 213.6l1.8-1.8c1.2-1.2 3.1-1.2 4.3 0 1.2 1.2 1.2 3.1 0 4.3l-1.8 1.8c-1.2 1.2-3.1 1.2-4.3 0"/><path class="st126" d="M147.1 220.4l-1.8 1.8c-1.2 1.2-3.1 1.2-4.3 0-1.2-1.2-1.2-3.1 0-4.3l1.8-1.8c1.2-1.2 3.1-1.2 4.3 0"/><circle cx="252" cy="199" r="9" fill="#ff6e6e"/><path class="st69" d="M252 193v6.4l3.9 2.8"/><circle cx="278" cy="199" r="9" fill="#77c993"/><path class="st69" d="M278 193v6.4l3.9 2.8"/><path d="M177.4 212.5l-6 6-3-3-6 6" fill="none" stroke="#73c881" stroke-width="2" stroke-linecap="round" stroke-linejoin="round" stroke-miterlimit="10"/><path fill="#73c881" d="M178.9 211h-6l6 6z"/><path d="M204.5 220.4l-6-6-3 3-6-6" fill="none" stroke="#fa8485" stroke-width="2" stroke-linecap="round" stroke-linejoin="round" stroke-miterlimit="10"/><path fill="#fa8485" d="M206 221.9h-6l6-6z"/><circle class="st133" cx="223.5" cy="215.6" r="6.5"/><path class="st133" d="M223 212.1v4h4"/><path d="M302.5 207c-4.7 0-8.5-3.8-8.5-8.5s3.8-8.5 8.5-8.5 8.5 3.8 8.5 8.5-3.8 8.5-8.5 8.5z" fill="#5dc967"/><circle class="st6" cx="300" cy="196.4" r="1.2"/><circle class="st6" cx="305.1" cy="196.4" r="1.2"/><path d="M299 200.4c.3.4 1.5 1.9 3.5 1.9s3.1-1.4 3.5-1.9" fill="none" stroke="#fff" stroke-width="1.415" stroke-linecap="round" stroke-miterlimit="10"/><path d="M324.5 207c-4.7 0-8.5-3.8-8.5-8.5s3.8-8.5 8.5-8.5 8.5 3.8 8.5 8.5-3.8 8.5-8.5 8.5z" fill="#f76d6d"/><circle class="st6" cx="322" cy="196.4" r="1.2"/><circle class="st6" cx="327.2" cy="196.4" r="1.2"/><path d="M327.7 202.3c-.3-.4-1.4-1.7-3.2-1.7-1.8 0-2.9 1.3-3.2 1.7" fill="none" stroke="#fff" stroke-width="1.316" stroke-linecap="round" stroke-miterlimit="10"/><g id="Group_48" transform="translate(-175.864 -196.88)"><circle id="Ellipse_41" class="st45" cx="419.8" cy="417.9" r="5.6"/><path id="Line_6" class="st69" d="M419.9 417v5"/><path id="Line_7" class="st69" d="M419.9 414v2"/></g><g id="tick_green_circle_success_complete" transform="translate(-.35 -.58)"><path id="Path_414" class="st138" d="M263.1 221.2l2 2 4.5-4.5"/><circle id="Ellipse_44" class="st138" cx="265.9" cy="221.1" r="7"/></g><g id="schedule_timer_repeat_refresh_reload" transform="translate(7.308 6.695)"><g id="Group_53" transform="translate(-7.308 -6.095)"><path id="Path_411" class="st139" d="M284.2 215.2c2.5-2.3 6.4-2.3 8.8.1 2.5 2.4 2.5 6.3.1 8.8l-.1.1c-2.4 2.5-6.3 2.5-8.8.1l-.1-.1c-1.3-1.2-2-3-1.9-4.7v-.6"/><path id="Path_412" d="M279.8 220.2l2.6-3 2.6 3h-5.2z" fill="#ff9b26"/><path id="Path_413" class="st139" d="M288.5 217.2v3.6h3.6"/></g></g><g id="red_error_stop_alert_exclamation_warning" transform="translate(7 7)"><g id="Group_55" transform="translate(-6.5 -6.5)"><circle id="Ellipse_45" cx="309.5" cy="219.5" r="6.5" fill="none" stroke="#f74d4d" stroke-miterlimit="10"/><path id="Line_8" class="st142" d="M309.5 215.5v5"/><path id="Line_9" class="st142" d="M309.5 221.5v2"/></g></g><g id="bulb_idea_hint_notes_tips" transform="translate(18.5 21.513)"><g id="Group_61" transform="translate(-18.5 -21.513)"><path id="Path_416" d="M392.9 236.9c-3.4 0-6.2 2.8-6.2 6.2 0 1.2.4 2.4 1 3.4l2.7 5.1h5.2l2.5-5.1c.6-1 1-2.2 1-3.4 0-3.4-2.8-6.2-6.2-6.2z" fill="#fff4d4"/><path id="Path_417" d="M391 237.7c3.1 0 5.5 2.5 5.6 5.5 0 1.1-.3 2.1-.9 3l-2.3 4.7H389l-2.5-4.7c-1.7-2.5-1-5.9 1.5-7.6.9-.6 2-.9 3-.9m0-.8c-3.4 0-6.2 2.8-6.2 6.2 0 1.2.4 2.4 1 3.4l2.7 5.1h5.2l2.5-5.1c.6-1 1-2.2 1-3.4 0-3.4-2.8-6.2-6.2-6.2z"/><path id="Path_418" d="M388 242.7h-.8c0-1.8 1.5-3.3 3.3-3.3v.8c-1.3 0-2.5 1-2.5 2.3v.2z"/><path id="Rectangle_68" d="M388.5 252.2h5.3v1h-5.3z"/><path id="Rectangle_69" d="M388.5 253.7h5.3v1h-5.3z"/><path id="Rectangle_70" d="M388.5 255.2h5.3v1h-5.3z"/><path id="Rectangle_71" d="M389.8 256.7h3v1h-3z"/><path id="Path_419" d="M391.5 233.5v-2.3h-1v2.3h1z"/><path id="Path_420" d="M398.2 236.7l1.5-1.6c-.2-.2-.4-.5-.6-.7l-1.6 1.6.7.7z"/><path id="Path_421" d="M400.2 243.8h2.3v-1h-2.3v1z"/><path id="Path_422" d="M379.8 243.8h2.3v-1h-2.3v1z"/><path id="Path_423" d="M384.4 236.1l-1.6-1.9c-.2.2-.4.5-.6.7l1.6 1.8.6-.6z"/></g></g><path class="st51" d="M20.4 262.7h-12c-1.7 0-3-1.3-3-3v-24c0-1.7 1.3-3 3-3h12c1.7 0 3 1.3 3 3v24c0 1.7-1.4 3-3 3zM5.4 238.7h18M5.4 255.7h18"/><path class="st133" d="M62.4 263.2h-26c-1.1 0-2-.9-2-2v-17l12-10.6h6l12 10.6v17c0 1.1-.9 2-2 2z"/><path class="st133" d="M39.4 247.2v-14c0-.6.4-1 1-1h18c.6 0 1 .4 1 1v14"/><path class="st51" d="M35 244.7l14.9 8.4 14.8-8.4"/><path class="st144" d="M45.3 251.3l-6.4 5.6M54.1 251.3l5.7 5.6"/><path d="M80.6 232.3c-3.3 0-6 2.7-6 6s2.7 6 6 6 6-2.7 6-6-2.7-6-6-6z"/><path class="st47" d="M78 237.3l2.6 2.6 2.5-2.6"/><path d="M102 233.1V236h.9c5.8 0 7.8 3.3 8.4 6.5-2.5-2.4-5.5-2.7-7.1-2.7-.8 0-1.4.1-1.5.1l-.7.1v2.8l-6.4-4.8 6.4-4.9"/><path id="Path_628" d="M166.4 244.5l-5.9-9.8c-.9-1.6-3.1-2.2-4.8-1.4-.6.3-1.1.8-1.4 1.4l-5.9 9.9c-.6 1.1-.6 2.4 0 3.5s1.8 1.8 3.1 1.8h11.9c2 0 3.6-1.6 3.5-3.5.1-.6-.1-1.3-.5-1.9zm-8.9-8c.6 0 1.1.4 1.2 1l-.3 6.1c-.1.4-.5.8-.9.8-.5 0-.9-.3-.9-.8l-.3-6.1c.1-.6.6-1 1.2-1zm.9 11c-.5.5-1.3.5-1.8 0s-.5-1.3 0-1.9c.5-.5 1.3-.5 1.8 0s.5 1.3 0 1.9z" fill="#ffb94a"/><path id="Icon_awesome-user" d="M80 254.9c1.1 0 2-.9 2-2s-.9-2-2-2-2 .9-2 2 .9 2 2 2zm1.4.5h-.3c-.7.3-1.6.3-2.3 0h-.3c-1.2 0-2.1 1-2.1 2.1v.7c0 .4.3.8.8.8h5.6c.4 0 .8-.3.8-.8v-.7c-.1-1.1-1-2.1-2.2-2.1z" opacity=".4"/><g id="Group_342" transform="rotate(180 78.053 183.978)"><g id="Group_340" transform="translate(132.053 344.598)"><path id="Path_499" d="M-174.6-221.2l-3.3 5.6h19.4l-3.4-5.6h-12.7z"/><path id="Path_500" d="M-163-222.6l-5.4-9.4-5.2 9.4h10.6z"/></g><path id="Path_501" d="M-46.7 130.4l-3.7 5.6h28.6l-3.8-5.6h-21.1z"/></g><path class="st147" d="M339.7 247.3l-1.5-4.9c-.2-.6-.7-1.1-1.4-1.2-.7-.1-1.3.2-1.7.8l-2.8 4.4-1.2-.4c-.2-.1-.4-.2-.5-.4s-.1-.4.1-.6l1.9-2.9c.2-.2.1-.6-.2-.7-.2-.2-.6-.1-.7.2l-1.9 2.9c-.3.5-.4 1-.2 1.5s.6.9 1.1 1l.9.3-.9 1.5c-.1.2-.3.3-.6.3h-4.7c-.3 0-.5-.1-.6-.4-.1-.2-.1-.5 0-.7l3.8-5.8c.3-.5.4-1.2.1-1.8s-.9-.9-1.5-.9h-3c-.3 0-.5.2-.5.5s.2.5.5.5h3c.4 0 .5.2.6.3.1.2.1.5 0 .7l-3.8 5.8c-.3.5-.4 1.2-.1 1.7.3.6.9.9 1.5.9h4.7c.6 0 1.1-.3 1.4-.8l1.1-1.7 4.9 1.8c.6.2 1.2 0 1.7-.5.5-.2.7-.8.5-1.4zm-1.2.9c-.2.2-.4.2-.6.2l-4.7-1.7 2.7-4.2c.1-.2.4-.3.7-.3.3 0 .5.2.6.5l1.5 4.9c.1.2 0 .5-.2.6z"/><circle class="st147" cx="333.7" cy="239.3" r=".9"/><path class="st148" d="M93.5 255.1v4.3c0 .7 0 1.3.3 1.9.5 1 1.5 1.3 2.6 1.4h.2c.7 0 1.5-.2 2.1-.6.8-.6.9-1.3.9-2.2v-1.8-3.3-1.2s.3-2.1-2-2.1-2 2.2-2 2.2v5.8s-.1 1.1 1 1.1 1-1 1-1v-4.5"/><path d="M224.9 252.6c-5.2 0-9.5-4.3-9.5-9.5s4.3-9.5 9.5-9.5 9.5 4.3 9.5 9.5-4.3 9.5-9.5 9.5z" fill="#d7ffd8"/><path class="st150" d="M224.9 234.1c5 0 9 4 9 9s-4 9-9 9-9-4-9-9 4-9 9-9m0-1c-5.5 0-10 4.5-10 10s4.5 10 10 10 10-4.5 10-10-4.5-10-10-10z"/><circle class="st150" cx="227.6" cy="240.4" r="1.4"/><circle class="st150" cx="222.2" cy="240.4" r="1.4"/><path d="M230.3 243.8c-.8 2.1-2.9 3.6-5.4 3.6s-4.5-1.5-5.3-3.6" fill="none" stroke="#199361" stroke-linecap="round" stroke-linejoin="round" stroke-miterlimit="10"/><path d="M251.9 252.6c-5.2 0-9.5-4.3-9.5-9.5s4.3-9.5 9.5-9.5 9.5 4.3 9.5 9.5-4.3 9.5-9.5 9.5z" fill="#ffcaca"/><path class="st153" d="M251.9 234.1c5 0 9 4 9 9s-4 9-9 9-9-4-9-9 4-9 9-9m0-1c-5.5 0-10 4.5-10 10s4.5 10 10 10 10-4.5 10-10-4.5-10-10-10z"/><circle transform="rotate(-11.902 255.428 242.748)" class="st153" cx="255.4" cy="242.7" r="1.8"/><circle class="st153" cx="248.4" cy="242.7" r="1.8"/><path d="M245.1 241.3c1.1-2.7 3.8 1 6.9 1 3.2 0 5.8-3.9 6.8-1" fill="none" stroke="#b21414" stroke-linecap="round" stroke-linejoin="round" stroke-miterlimit="10"/><path d="M278.9 252.6c-5.2 0-9.5-4.3-9.5-9.5s4.3-9.5 9.5-9.5 9.5 4.3 9.5 9.5-4.3 9.5-9.5 9.5z" fill="#cce3ff"/><path class="st156" d="M278.9 234.1c5 0 9 4 9 9s-4 9-9 9-9-4-9-9 4-9 9-9m0-1c-5.5 0-10 4.5-10 10s4.5 10 10 10 10-4.5 10-10-4.5-10-10-10z"/><circle class="st156" cx="281.6" cy="240.4" r="1.4"/><circle class="st156" cx="276.2" cy="240.4" r="1.4"/><path fill="none" stroke="#3e8edd" stroke-width=".941" stroke-linecap="round" stroke-linejoin="round" stroke-miterlimit="10" d="M275.5 246.5h7.1"/><path d="M305.9 252.6c-5.2 0-9.5-4.3-9.5-9.5s4.3-9.5 9.5-9.5 9.5 4.3 9.5 9.5-4.3 9.5-9.5 9.5z" fill="#ffebca"/><path class="st159" d="M305.9 234.1c5 0 9 4 9 9s-4 9-9 9-9-4-9-9 4-9 9-9m0-1c-5.5 0-10 4.5-10 10s4.5 10 10 10 10-4.5 10-10-4.5-10-10-10z"/><circle class="st159" cx="308.6" cy="240.4" r="1.4"/><circle class="st159" cx="303.2" cy="240.4" r="1.4"/><path d="M309.6 247.1c-1-.8-2.2-1.3-3.6-1.3s-2.7.5-3.7 1.4" fill="none" stroke="#d37f0f" stroke-linecap="round" stroke-linejoin="round" stroke-miterlimit="10"/><path d="M358.3 238l-13 4.9c-.3.1-.4.4-.3.7.1.1.2.3.3.3l6 1.8 1.8 6c.1.2.2.4.5.4.2 0 .4-.1.5-.3l4.9-13c.1-.3 0-.6-.3-.7-.1-.1-.3-.1-.4-.1zm-11.2 5.4l9.4-3.6-4.9 4.9-4.5-1.3zm6.5 6.5l-1.3-4.5 4.9-4.9-3.6 9.4z"/><path class="st10" d="M17.5 286.5h-10c-1.1 0-2-.9-2-2v-9c0-1.1.9-2 2-2h10c1.1 0 2 .9 2 2v9c0 1.1-.9 2-2 2z"/><path class="st10" d="M5.6 276.1l6.7 5.1 7-5.2"/><path class="st161" d="M41.5 276.5v9c0 .6-.4 1-1 1h-12c-.6 0-1-.4-1-1v-9"/><path class="st10" d="M27.6 276.9l6.7 4.2 7-4.3"/><path class="st161" d="M41.4 275.8l-6.8-3.1-7 3.2"/><g id="users_shared_group_other_crm" transform="translate(17.5 9.763)"><g id="Group_792" transform="translate(-17.5 -9.763)"><path id="Path_886" d="M56.9 283.6c.1 1 .5 1.9 1.2 2.6.7.6 12.6.6 12.9 0 .7-.7 1.1-1.6 1.2-2.6 0-3.2-3.4-5.7-7.6-5.8-4.4 0-7.7 2.6-7.7 5.8z"/><path id="Path_887" d="M54.6 274.2c-1.4 0-2.5 1-2.6 2.4v.2c0 1.4 1 2.5 2.4 2.6h.2c1.4 0 2.5-1 2.6-2.4v-.2c0-1.4-1-2.5-2.4-2.6h-.2z"/><path id="Path_888" d="M64.4 270c-1.8 0-3.4 1.4-3.4 3.2v.2c0 1.8 1.4 3.4 3.2 3.4h.2c1.8 0 3.4-1.4 3.4-3.2v-.2c0-1.8-1.4-3.4-3.2-3.4h-.2z"/><path id="Path_889" d="M55.4 286.1c-2.6.1-4.9.1-5.1-.2-.5-.4-.8-1.1-.9-1.7 0-2.1 2.4-3.9 5.4-3.9h1.4s-2 4.2.1 5.9l-.9-.1z"/><path id="Path_890" d="M74.2 274.2c1.4 0 2.5 1 2.6 2.4v.2c0 1.4-1.1 2.6-2.6 2.6s-2.6-1.1-2.6-2.6c0-1.4 1-2.5 2.4-2.6h.2z"/><path id="Path_891" d="M73.3 286.1c2.6.1 4.9.1 5.1-.2.5-.4.8-1.1.9-1.7 0-2.1-2.4-3.9-5.4-3.9h-1.4s2 4.2-.1 5.9l.9-.1z"/></g></g><path id="Rectangle_1115" d="M121 276h1v1h-1z"/><path id="Rectangle_1116" d="M123 276h1v1h-1z"/><path id="Rectangle_1117" d="M125 276h1v1h-1z"/><path id="Rectangle_1118" d="M121 278h1v1h-1z"/><path id="Rectangle_1119" d="M123 278h1v1h-1z"/><path id="Rectangle_1120" d="M125 278h1v1h-1z"/><path id="Rectangle_1121" d="M121 280h1v1h-1z"/><path id="Rectangle_1122" d="M123 280h1v1h-1z"/><path id="Rectangle_1123" d="M125 280h1v1h-1z"/><path id="Path_899" d="M128 286v-13h-3v-5.8l-10-3.9v4.7h-5v18h-2v1h22v-1h-2zm-12-21.3l8 3.1v5.2h-4v-5h-4v-3.3zm-4 6.3h6v1h-6v-1zm0 3h6v1h-6v-1zm0 3h6v1h-6v-1zm1 9v-5h4v5h-4zm13 0v-4h-1v4h-1v-4h-1v4h-1v-4h-1v4h-1v-12h7v12h-1z"/><path id="Path_421_1_" class="st6" d="M93.7 279.7l7-4.3v-1.1h-14v1.1l7 4.3z"/><path id="Path_422_1_" class="st6" d="M93.7 281.3l-7-4v8h14v-8l-7 4z"/><g id="Group_373" transform="translate(-130 -135.956)"><g id="Group_367" transform="translate(130 139.32)"><path id="SVGID" class="st6" d="M138.1 266.1v3.1h3.1l6.2-6.2-3.1-3.1-6.2 6.2z"/></g><path id="Path_420_1_" class="st6" d="M268.1 405.5v3.1h3.1l6.2-6.2-3.1-3.1-6.2 6.2z"/><g id="Group_368" transform="translate(137.551 135.956)"><path id="SVGID-2" transform="rotate(-45.017 140.646 262.4)" class="st6" d="M139.1 260.4h3.1v4h-3.1z"/></g></g><g id="Group_372" transform="translate(-319.018 -38.558)"><path id="Path_428" class="st69" d="M509.1 312.7c1.8 1.4 3.9 2.3 6.1 2.7 1.4.3 2.8-.2 3.8-1.2.5-.3.7-1 .4-1.5l-.3-.3-2.4-2.2c-.4-.4-1-.4-1.5-.1l-1.4 1.3s-4-1.9-5.6-5.1l1.1-1c.5-.4.6-1.1.2-1.7-.1-.1-.1-.2-.2-.2l-2.4-2.2c-.5-.3-1.2-.2-1.7.1-1.3 1-1.8 2.7-1.4 4.3-.1 0 0 2.8 5.3 7.1z"/></g><g id="Group_371" transform="translate(-268 -39)"><path id="Path_425" class="st69" d="M441.8 313h-11.6c-.4 0-.7-.3-.7-.7v-10.6c0-.4.3-.7.7-.7h11.6c.4 0 .7.3.7.7v10.6c0 .4-.3.7-.7.7z"/><path id="Path_426" class="st6" d="M432.6 302h-.2c-.5 0-.9-.4-.9-.9v-2.2c0-.5.4-.9.9-.9h.2c.5 0 .9.4.9.9v2.2c0 .5-.4.9-.9.9z"/><path id="Path_427" class="st6" d="M439.6 302h-.2c-.5 0-.9-.4-.9-.9v-2.2c0-.5.4-.9.9-.9h.2c.5 0 .9.4.9.9v2.2c0 .5-.4.9-.9.9z"/><path id="Rectangle_430" class="st6" d="M435.5 306h4v4h-4z"/></g><g id="notes_scrap_text_document" transform="translate(6.506 8.006)"><g id="Group_391" transform="translate(-6.506 -8.006)"><path id="Path_439" class="st6" d="M221.8 260.8h-2v1h-2v-1h-3v1h-2v-1h-2c-.5-.1-.9.3-1 .8v14.2c-.1.5.3.9.8 1h9.2l3-2.9v-12.1c.1-.5-.3-.9-.8-1h-.2zm-2 14.5v-1.5h1.6l-1.6 1.5zm0-2.5c-.5-.1-.9.3-1 .8v2.2h-8v-11h11v8h-2z"/><path id="Rectangle_434" class="st6" d="M211.8 272.8h6v1h-6z"/><path id="Rectangle_435" class="st6" d="M211.8 269.8h9v1h-9z"/><path id="Rectangle_436" class="st6" d="M211.8 266.8h9v1h-9z"/></g></g><path id="Icon_awesome-user_1_" class="st6" d="M240.3 268.8c2.2 0 4-1.8 4-4s-1.8-4-4-4-4 1.8-4 4 1.8 4 4 4zm2.8 1h-.5c-1.4.7-3.1.7-4.6 0h-.5c-2.3 0-4.2 1.9-4.2 4.2v1.3c0 .8.7 1.5 1.5 1.5h11c.8 0 1.5-.7 1.5-1.5V274c0-2.3-1.8-4.2-4.2-4.2z"/><path class="st6" d="M358 271h8v1h-8zM358 267h5v1h-5zM358 269h5v1h-5zM362 276h4v1h-4zM362 274h4v1h-4zM361.8 278.3c-.6-.4-1.3-.6-2-.8-.2.7-.5 1.3-.7 1.9-.1-.3-.2-.6-.2-.8s-.1-.2-.2-.2-.2 0-.2.2c0 .3-.1.6-.2.8-.2-.6-.5-1.3-.7-2-.5.2-1.1.4-1.6.6-.9.4-1 1-.9 2h7.3v-.8c-.1-.2-.3-.6-.6-.9zM357.1 274.4c0 .2 0 .3-.2.5-.3.2-.2.7.1.9l.3.3c.2.3.3.6.6.8.3.2.6.4 1 .4.7-.1.9-.7 1.3-1.2l.3-.3c.3-.3.4-.8.1-.9-.2-.1-.2-.3-.2-.5 0-.7-.5-1.2-1.1-1.4-.2 0-.5-.1-.5-.1s-.3 0-.4.1c-.9.2-1.3.7-1.3 1.4z"/><path class="st6" d="M358.4 278.1c0 .1.1.1.2.1s.2 0 .2-.1c.1-.1.1-.3.2-.5h-.8c.1.2.2.3.2.5z"/><path class="st45" d="M356.5 272v-7.5h7.9l4.1 4v11H364"/><path class="st45" d="M364.5 265v3.5h3.5"/><path class="st6" d="M313 277h1v-4h-1zM311 277h1v-4h-1zM323 264v14h-7v-14h7m1-1h-9v16h9v-16z"/><path class="st6" d="M315 268v10h-5v-10h5m1-1h-7v12h7v-12zM321 274h-3v5h3v-5z"/><path class="st45" d="M295.5 262.5v4h4v-2.9c0-.6-.5-1.1-1.1-1.1h-2.9z"/><path class="st45" d="M298.6 278.5h-13.1v-16h13c.6 0 1 .4 1 1v14.1c0 .5-.4.9-.9.9z"/><path class="st45" d="M295.5 266.5v4h4v-4h-4zM295.5 270.5v4h4v-4h-4zM295.5 274.5v4h3c.6 0 1-.4 1-1v-3h-4z"/><path class="st6" d="M297 264h1v1h-1zM297 268h1v1h-1zM297 272h1v1h-1zM297 276h1v1h-1z"/><circle class="st45" cx="289.9" cy="268.2" r="1.7"/><path class="st45" d="M293 273.5h-6.2c0-2 1.4-2.9 3.1-2.9s3.1.9 3.1 2.9zM342.3 266.2"/><path class="st6" d="M346 268v9h-12v-9h12m-.1-1h-12c-.5 0-.9.4-.9.9v9.3c0 .4.4.8.8.8h12.4c.4 0 .8-.4.8-.8v-9c0-.6-.5-1.2-1.1-1.2z"/><path class="st10" d="M344.3 267.8"/><path class="st45" d="M336.6 267.1l8-2 .6 2.2M335.5 267.1l6.4-3.9 1.2 2.1M344.6 274.5h1.9v-4h-1.9c-1.1 0-2 .9-2 2s.9 2 2 2z"/><path class="st6" d="M344.1 271.7c-.3 0-.5.2-.5.5s.2.5.5.5.5-.2.5-.5-.2-.5-.5-.5z"/><path class="st45" d="M311 269.5h1M311 271.5h1M313 269.5h1M313 271.5h1M318 269.5h1M318 271.5h1M320 269.5h1M320 271.5h1M318 265.5h1M318 267.5h1M320 265.5h1M320 267.5h1"/><path class="st6" d="M274.2 273l-1.3-2.5 1.2-2.5H271l-1 2h-6.9s-.5-.2-.5.1.5.9.5.9h-.4 7.2l1 2h3.3zm-2-4h.9l-.8 1.5.7 1.5h-.9l-.7-1.4.8-1.6z"/><path class="st6" d="M269.2 272.1c-.3 1-.7 1.9-1.4 2.6-1.1 1.1-2.6 1.7-4 1.7s-3-.6-4-1.7c-2.6-2.6-2.2-7 1.2-9.1 1.8-1.1 4.2-1 6 .1 1.4.9 2 2 2.4 3.3h1c-.3-1.2-.9-2.3-1.8-3.2-2.7-2.7-6.9-2.7-9.6 0-3 3-2.7 7.8.9 10.4.8.6 1.7.9 2.6 1.1 2.4.4 4.5-.4 6-1.9.9-.9 1.6-2.1 1.9-3.3l-.2-.1h-.9v.1h-.1z"/><path class="st6" d="M265.4 268.7c.1.1.1.2.2.3h1.2c-.2-.3-.3-.6-.6-.9-1.1-1.2-3-1.5-4.5-.7-2.1 1.2-2.4 4.1-.8 5.7.7.7 1.7 1.1 2.6 1.1s1.8-.3 2.5-1c.4-.4.6-.7.8-1.2h-1.1c-.3.3-.5 1.3-2.8 1-.6-.1-1.3-.4-1.6-.9-.7-1-.6-2.4.3-3.3 1.1-1.1 2.7-1.1 3.8-.1z"/><path class="st45" d="M388.5 279.5h-12v-15h7.9l4.1 4z"/><path class="st45" d="M384.5 265v3.5h3.5M148.5 283v10l-8-3.5h-3v-3h2.9zM150 288.5h3M150.7 285.3l2.2-2M150.7 291.3l2.2 2"/><path class="st45" d="M147.7 292.2l-.7 1.9-5.2-2.2.5-1.4"/><path class="st6" d="M380.5 270.5c-.5 0-1.1-.3-1.4-.6l-.4.7c.3.3.8.6 1.3.7v.7h1v-.7c.8-.1 1.3-.7 1.3-1.4 0-1.8-2.5-1.2-2.5-2 0-.3.3-.6.8-.6s1 .2 1.2.5l.4-.7c-.3-.3-.7-.5-1.2-.6v-.5h-1v.7c-.7.2-1.1.7-1.1 1.3 0 1.7 2.5 1.1 2.5 2-.1.2-.4.5-.9.5zM383 270h3v1h-3zM383 272h3v1h-3zM379 274h7v1h-7zM379 276h7v1h-7z"/><path class="st45" d="M237 299.5h-3.5v-15h7.9l4.1 4v3.5"/><path class="st45" d="M241.5 285v3.5h3.5"/><path class="st6" d="M242.9 299.5c-.5 0-1.1-.3-1.4-.6l-.4.7c.3.3.8.6 1.3.7v.7h1v-.7c.8-.1 1.3-.7 1.3-1.4 0-1.8-2.5-1.2-2.5-2 0-.3.3-.6.8-.6s1 .2 1.2.5l.4-.7c-.3-.3-.7-.5-1.2-.6v-.5h-1v.7c-.7.2-1.1.7-1.1 1.3 0 1.7 2.5 1.1 2.5 2-.1.2-.4.5-.9.5z"/><circle class="st45" cx="242.9" cy="297.7" r="4.2"/><path class="st45" d="M169 297.5h-6.5v-15h7.9l4.1 4v3.5"/><path class="st45" d="M170.5 283v3.5h3.5"/><path class="st6" d="M166.5 289.5c-.5 0-1.1-.3-1.4-.6l-.4.7c.3.3.8.6 1.3.7v.7h1v-.7c.8-.1 1.3-.7 1.3-1.4 0-1.8-2.5-1.2-2.5-2 0-.3.3-.6.8-.6s1 .2 1.2.5l.4-.7c-.3-.3-.7-.5-1.2-.6v-.5h-1v.7c-.7.2-1.1.7-1.1 1.3 0 1.7 2.5 1.1 2.5 2-.1.2-.4.5-.9.5z"/><path class="st45" d="M170.7 293.7l1.8 1.8 3.8-3.7M235 288.5h5M235 290.5h9M235 292.5h4"/><path class="st6" d="M210 285h7v4h4v4h1v-4.7l-4.4-4.3H209v16h6v-1h-5v-14zm8 .8l2.3 2.2H218v-2.2z"/><path class="st6" d="M214 293v-.7c.8-.1 1.3-.7 1.3-1.4 0-1.8-2.5-1.2-2.5-2 0-.3.3-.6.8-.6s1 .2 1.2.5l.4-.7c-.3-.3-.7-.5-1.2-.6v-.5h-1v.7c-.7.2-1.1.7-1.1 1.3 0 1.7 2.5 1.1 2.5 2-.1.3-.4.6-.9.6s-1.1-.3-1.4-.6l-.4.7c.3.3.8.6 1.3.7v.7l1-.1zM225 295h-8.1l-.8-1.3-.8.5 3 4.8h4.9l1.9-3.2.2-.3-.3-.5zm-2.6 3h-3.6l-1.2-2h6.1l-1.3 2z"/><circle class="st6" cx="222.1" cy="299.9" r=".8"/><circle class="st6" cx="219.1" cy="299.9" r=".8"/><path class="st45" d="M191.5 289v8.8l7-3v-9l-7-3.5-7 3.5v9l6.7 3.3"/><path class="st45" d="M185 285.6l6.7 3.7 6.7-3.4"/><path class="st6" d="M190.1 283.5l-2.4 1.2 6.3 3.3.1 4.6 1.1-1.6 1.2.5.1-4.7z"/><circle class="st6" cx="314" cy="287.1" r="1"/><circle class="st6" cx="310.8" cy="288.3" r="1.2"/><path class="st45" d="M257.5 289.5h15v10h-15zM258 292.5h6M266 292.5h6M264 293.5h2M261.5 287.5h7v2h-7zM295.8 287.3l1 3.8-9.2 9.2-4.8-4.8 9.1-9.2zM285.5 294.6l3 3"/><circle class="st6" cx="293.5" cy="289.6" r="1"/><path class="st45" d="M307.4 289.9l1.1 1.1v3c0 .3-.1.6-.2.9l-2.9 5.9c-.2.3.1.7.4.7h10.5c.4 0 .6-.4.4-.7l-3-5.9c-.1-.3-.2-.6-.2-.9v-3l1.1-1.1M307 297.5h8M334.5 295.5h5v5h-5zM327.5 295.5h5v5h-5zM334.5 288.5h5v5h-5z"/><path transform="rotate(-23.234 328.603 290.198)" fill="none" stroke="#fff" stroke-miterlimit="10" d="M326.1 287.7h5v5h-5z"/><path class="st10" d="M399.5 295.5h5v5h-5zM392.5 295.5h5v5h-5zM399.5 288.5h5v5h-5z"/><path transform="rotate(-23.234 393.603 290.197)" fill="none" stroke="#000" stroke-miterlimit="10" d="M391.1 287.7h5v5h-5z"/><path class="st10" d="M18.5 309.5h-13c-.6 0-1-.5-1-1v-11.9c0-.6.5-1 1-1h12.9c.6 0 1 .5 1 1v11.9c.1.5-.4 1-.9 1zM5 298.5h14"/><path d="M7 301h2v2H7zM11 301h2v2h-2zM15 301h2v2h-2zM7 305h2v2H7zM11 305h2v2h-2zM15 305h2v2h-2z"/><path class="st10" d="M7.5 294v3M16.5 294v3"/><circle class="st10" cx="38.5" cy="302.5" r="8"/><path class="st10" d="M38.5 297v5.5l4 3"/><g transform="translate(-632 -705)" id="Final_1_"><g id="earth-globe-tool-copy-3" transform="translate(632 705)"><path id="Path_24_" d="M65.5 304.6c0-.5-.4-.9-.9-.9H64v.1h.6c.4 0 .7.3.7.7s-.3.7-.7.7h.4v.1-.3h-1v1h1v-1 .4c.2 0 .5-.4.5-.8z"/><g id="Group_1_"><path d="M67.3 298.6v.1h-.2v.3h.5l.2-.2-.2-.1-.1-.1-.1-.2-.1-.3-.2.1-.1.1v.1l.1.1z"/><path d="M67.5 298.8v-.2l-.1-.1-.2.1-.2.2v.2h.2zM63.4 299v1H63v-1h.2v.6h.1l.1-.1v-.1h.1v-.1l-.1-.3zM62.9 299.5v.1h.1v-.1l-.1-.1z"/><path id="Shape_3_" d="M72 302.9v-.7c-.1-.8-.3-1.5-.5-2.2 0-.1 0-.1-.1-.2-.4-.9-.9-1.6-1.5-2.3l-.1-.1-.4-.4c-1.4-1.3-3.3-2.1-5.4-2.1s-4 .8-5.4 2.1c-.3.3-.6.6-.9 1-1 1.4-1.7 3-1.7 4.9 0 4.4 3.6 8 8 8 3.1 0 5.8-1.8 7.1-4.4.3-.6.5-1.1.7-1.8 0-.2.1-.3.1-.5.1-.3.1-.7.1-1.3 0 .1 0 0 0 0zm-2-3.2c.1.1.2.2.2.3H70v-.3zm-1-1v-.4c.1.1.2.3.4.4l-.1.2h-.5v-.1l.2-.1zm-9-1.3v-.4h-.2v1H59v-.5l1 .5v-.6zm0 .4h.2v.2h-.4l-.1-.1.3-.1zm11 3.2h-.6l-.4-.3h-.1v.3h-.4l-.1-.1-.4-.2v-.4l-1 .1-.3.6h-.3l-.2-.5-.2.2v.4l-1 .6.1.3h.2v.2h-.2v.6l.8.1h.3v1h1l.2-.4h.5l-.1.6.5.9-.3.5v1l1 .4v.9h-.3s-3.4 2.3-5.7 2.3c-4 0-7.3-3.3-7.3-7.3 0-1 .2-2 .3-2.9v-.2l.5-.3c.1-.2.2-.3.3-.5v.1l-.3.4c-.1.2-.2.4-.5.5v1.1l.8.5h.2v-.2l-.3-.4-.1-.2h.4l.1.2.4.6-.1.2.3.4.4.2v-.1h.5v.2h.2l.3.1.4.5h.6l.1.5-.4.3v.4l-.1.3.6.7v.2l.2.1s.5.3.6.3v1.3l-.1.6.3.3v.6l.3.6.4.4h.4v-.1l-.3-.3v-.1l.1-.2v-.2H63l-.1-.1.2-.2v-.1l-.2-.1v-.1h.3l.4-.2.1-.3.5-.6-.1-.5.1-.2h.4l.3-.2.1-.9.3-.4.1-.3-.3-.1-.2-.7h-.6l-.5.1v-.4l-.2-.8H62.7l-.2-.1v.1h-.4l-.2-.2-.5-.1-.4.4-.6-.1v-.7l-.4-.1.2-.3v-.2l-.6.4h-.4l-.1-.3.1-.3.2-.4.4-.3H61v.4-.5l.2-.2.5-.3v-.2l.5-.5.5-.3.3-.3h.1l.1.1.1-.1h-.2v-.1.1h.2l.1-.1.1.1h.7-.6.2v-.1h.3v.1l-.3.1v.1l.4.1h.1v-.2l-.3-.1v-.1l.3-.1v-.3l-.3-.2v-.4h-.5v-.1l-.5-.1.1.2v.5l-.7.1-.2.3h-.1v-.4l-.4-.1-.2-.1-.1-.3.7-.4.3-.1v.2h.2v-.1h.2-.1v-.1h.2l.1-.1.5-.1.2.2-.6.3.7.2.2.6h.3l.1-.6-.4-.1v-.3l-.5-.3-.5.1-.3.1v.3h-.3v-.2l.3-.2h-.6l-.1.2h.2v.2h-.3v.1h-.5v-.3h.4l.3-.3-.1-.1-.2.2h-.3l-.2-.9h-.4l-.4 1h.4v.1l-.1.1h.4l.1.2h-.5v-.1l-.3-.1-.2.8h-.4s2.7-2.3 4.3-2.3c1.9 0 3.6.7 4.8 1.8l-.1.2-.3.1-.1.2v.2h.2l.1.3.3-.1-.1-.3h-.1l-.2.6h-.3l-.3.4-.4.1-.1.3h.2v.2l-.4-.1-.3.1-.1.2.1.4.2-.2h.5l.1-.2.4-.5.3.1.2-.2v.2l.6.4-.1.1H69l.1.2h.2l.2-.1v-.2h.1l-.1-.1-.4-.2-.1-.5h.3l.1.1.3.2v.3l.3.3.1-.4.2-.1v.4l.2.2h.4s.1.7.1 1zm-10.6-2.4l.2-.1h.2l-.1.2-.2.1-.1-.2zm1.6.4h-1l-.2.3v-.1l.2.8v-1h1zm-1 0v.5l.5.1H61v-.6h.6-.6zm0 .3v-.2l.2.1-.2.1zm1 .4v.1l-.1.1h-.2v-.2h.1v-.1l.2.1zm-1-.7h.2l-.3.4-.1-.1v-.2l.2-.1zm0 .6v-.6h.7l.3.7v.3h-.3l-.7-.4zm.7-.2h.2-.2zm9.4 1.9c.1 0 .1.1 0 0z"/><path d="M57 299.9v.2c.1-.2.2-.4.3-.5l-.3.3z"/></g></g></g><circle cx="368.7" cy="245" r="5.5" fill="none" stroke="#ffa800" stroke-miterlimit="10"/><path class="st165" d="M368.7 241v5M368.7 247v2"/><path fill="none" stroke="#589bed" stroke-width="1.5" stroke-linecap="round" stroke-linejoin="round" stroke-miterlimit="10" d="M363.6 291.3L356 299l-7.7-7.7"/><circle cx="398" cy="263" r="1"/><circle cx="401" cy="263" r="1"/><circle cx="398" cy="266" r="1"/><circle cx="401" cy="266" r="1"/><circle cx="398" cy="269" r="1"/><circle cx="401" cy="269" r="1"/><circle cx="398" cy="272" r="1"/><circle cx="401" cy="272" r="1"/><circle cx="398" cy="275" r="1"/><circle cx="401" cy="275" r="1"/><circle cx="398" cy="278" r="1"/><circle cx="401" cy="278" r="1"/><circle cx="86" cy="303" r="7" fill="#ffbd39"/><path class="st168" d="M86 299v5M86 305v2"/><g id="arrow_down_red_fall_1_"><path class="st56" d="M328 217v9"/><path class="st57" d="M324 226h8l-4 4z"/></g><g id="help_question_1_"><circle class="st10" cx="109.5" cy="303.5" r="8"/><path d="M112.4 301.7s0 .1 0 0c-.1 1-.6 1.6-1.4 2.1-.2.1-.3.2-.5.3-.4.3-.8.7-.8 1.3h-1c0-.7.3-1.2.8-1.6.4-.3.9-.6 1.3-1 .7-.7.7-1.7 0-2.3-.3-.3-.7-.4-1.3-.4s-1 .1-1.3.4-.5.6-.6 1.1l-1.1-.1c.1-.8.4-1.4.9-1.8s1.2-.6 2-.6c.9 0 1.6.2 2.1.6.7.5.9 1.3.9 2zm-3.7 6v-1.2h1.1v1.2h-1.1z"/></g><path id="Path_21" class="st169" d="M169.9 309.3c0 2.6-2 6.2-4.3 6.2s-4.3-3.6-4.3-6.2c-.1-2.5 1.8-4.6 4.3-4.8 2.5.2 4.4 2.3 4.3 4.8z"/><path id="Path_22_1_" class="st169" d="M163.6 314.6c-1.1.3-5 1.6-5.9 2.5-1 1-1.1 5.4-1.1 5.4h9"/><circle id="Ellipse_6" class="st170" cx="173.8" cy="320.5" r="4.5"/><path id="Path_23" d="M175.8 319l-3 3-1-1" fill="none" stroke="#fff" stroke-linecap="round" stroke-miterlimit="10"/><path id="Path_24" class="st170" d="M168 315.3c.5.1 1.4.4 2.3.7.3-.3.6-.5 1-.7-1.4-.5-2.7-.9-3-1-.2-.1-.5.1-.6.3-.1.3 0 .6.3.7z"/><path id="Path_25" class="st170" d="M168.3 322h-3c-.3 0-.5.2-.5.5s.2.5.5.5h3.3c-.1-.3-.2-.7-.3-1z"/><path id="Path_26" class="st172" d="M199.9 309.3c0 2.6-2 6.2-4.3 6.2s-4.3-3.6-4.3-6.2c-.1-2.5 1.8-4.6 4.3-4.8 2.5.2 4.4 2.3 4.3 4.8z"/><path id="Path_27_2_" class="st172" d="M193.7 314.6c-1.1.3-5 1.6-5.9 2.5-1 1-1.1 5.4-1.1 5.4h8.9"/><circle id="Ellipse_7" class="st173" cx="203.8" cy="320.5" r="4.5"/><path id="Line_3" class="st45" d="M205.8 318.5l-4 4"/><path id="Line_4" class="st45" d="M205.8 322.5l-4-4"/><path id="Path_28" class="st173" d="M198 315.3c.5.1 1.4.4 2.3.7.3-.3.6-.5 1-.7-1.4-.5-2.7-.9-3-1-.2-.1-.5.1-.6.3 0 .3.1.6.3.7z"/><path id="Path_29" class="st173" d="M198.3 322h-3c-.3 0-.5.2-.5.5s.2.5.5.5h3.3c-.1-.3-.2-.7-.3-1z"/><g id="users_shared_group_people_human_1_"><path class="st10" d="M322.4 312.5c0 1.8-1.4 4.3-3.1 4.3s-3.1-2.5-3.1-4.3 1.4-3.2 3.1-3.2c1.6-.1 3.1 1.4 3.1 3.2z"/><path class="st10" d="M317.9 316.3s-3 1.1-3.7 1.8c-.7.7-.7 3.5-.7 3.5h11.6"/><path class="st10" d="M320.5 316.5s2.8.7 3.5 1.4c.7.7.7 3.8.7 3.8M329.6 313.6c0 1.6-1.2 3.7-2.6 3.7s-2.6-2.2-2.6-3.7 1.2-2.8 2.6-2.8c1.4.1 2.6 1.4 2.6 2.8z"/><path class="st10" d="M327.9 317s2.4.8 3.1 1.4c.6.6.6 3.1.6 3.1H326"/></g><g id="Artwork_123" transform="translate(6.7 7.75)"><g id="Group_79" transform="translate(-6.6 -7.75)"><path id="Path_1760" class="st174" d="M347.5 309.7c1.6-.1 3 1.2 3.1 2.8 0 1.6-.7 4.1-3.1 4.1s-3.1-2.6-3.1-4.1c.1-1.6 1.4-2.9 3-2.8h.1"/><path id="Path_1761" class="st174" d="M353.7 321.8c0 .8-12.5.8-12.5 0s2-3.4 4.6-4l1.6 1.8 1.5-1.8c2.7.6 4.8 2.7 4.8 4"/><path id="Path_1762" class="st161" d="M342.2 312.7c0-2.9 2.4-5.3 5.3-5.3s5.3 2.4 5.3 5.3"/><path id="Path_1763" d="M344 317.2c-1.3-.9-1.9-2.5-1.6-4.1" fill="none" stroke="#000" stroke-width=".44" stroke-linecap="round" stroke-miterlimit="10"/><path id="Path_1764" d="M352.2 315.1v-4c1 0 1.8.5 1.8 1.2v1.6c0 .7-.8 1.2-1.8 1.2"/><path id="Path_1765" d="M342.8 315.1v-4c-1.1 0-2 .5-2 1.2v1.6c-.1.7.8 1.2 2 1.2"/><path id="Path_1766" d="M344.3 316.5c.3 0 .5.2.5.5s-.2.5-.5.5-.5-.2-.5-.5.2-.5.5-.5"/></g></g><g id="call_receiver_phone_2_"><path class="st50" d="M369.8 315.6c-1.4-1.4-2.9-3-2.3-3.6.9-.9 1.7-1.5 0-3.5-1.6-2-2.7-.5-3.6.5-1 1 0 4.8 3.8 8.5 3.8 3.6 7.6 4.6 8.6 3.6.9-.9 2.4-2 .3-3.6s-2.6-.8-3.5.2c-.2.5-1.9-.7-3.3-2.1z"/></g><g id="chat_callout_comment_reply_feedback_1_"><path class="st10" d="M393.3 308.5c-3.9 0-7.1 2.3-7.1 5.1 0 1.5.7 2.8 2.1 3.8v3l3.5-1.9c.4.1 1.1.1 1.6.1 3.9 0 7.1-2 7.1-5 .1-2.7-3.3-5.1-7.2-5.1z"/></g><g id="support_customer_headset_headphone_1_"><path d="M383.9 293.9c-.2-1.3-.9-2.4-1.9-3.1-.6-1.3-2-2.8-4.5-2.8-2.9 0-4.1 1.9-4.5 2.8-1.2.8-2 2.1-2 3.7 0 2 1.3 3.6 3 4.2v-7.9c.4-.7 1.4-1.9 3.5-1.9 2 0 3 1.2 3.5 2v7.8c1.4-.5 2.4-1.6 2.8-3 .4 1 .8 2.3.2 3.3-.6 1.2-2.4 1.8-5.1 1.9h-2.8c-.1.1-.1.2-.1.4 0 .6.7 1.1 1.5 1.1.5 0 .9-.2 1.1-.4 3.3-.1 5.4-.9 6.3-2.5 1.1-2.1-.6-4.9-1-5.6z"/></g><path d="M23.5 331h-8c0-1.5 1.8-3 4-3s4 1.5 4 3z"/><path class="st10" d="M16 327.5H6c-.3 0-.5-.2-.5-.5v-8c0-.3.2-.5.5-.5h13c.3 0 .5.2.5.5v3"/><path class="st48" d="M9.5 330.5h5"/><path class="st10" d="M12.5 328v2"/><circle cx="19.5" cy="325.3" r="2"/><path class="st10" d="M33.5 319.5h15v10h-15z"/><path class="st10" d="M48.5 320l-7.5 5.5-7.5-5.5"/><path class="st148" d="M76.5 330.5h-17c-.6 0-1-.4-1-1v-10c0-.6.4-1 1-1h17c.6 0 1 .4 1 1v10c0 .6-.4 1-1 1z"/><path fill="none" stroke="#313949" stroke-linecap="round" stroke-miterlimit="10" d="M61.5 332.5h14"/><path d="M66 321.5v5.1c0 .3.4.6.7.3l4.3-2.6c.3-.2.3-.5 0-.7l-4.3-2.6c-.3-.1-.7.1-.7.5z" fill="#313949"/><path class="st148" d="M65 332.5h6"/><path class="st10" d="M119.5 324v9M119.5 324v9M124 328.5h-9M124 328.5h-9M143 328.5h-9M143 328.5h-9"/><path class="st178" d="M21.5 338.5l-15 15M21.5 353.5l-15-15"/><g id="Icon_feather-mail" transform="translate(6.666 3.775)"><path id="Path_1329" class="st179" d="M25.1 336.8h10.4c.7 0 1.3.6 1.3 1.3v7.5c0 .7-.6 1.2-1.3 1.3H25.1c-.7 0-1.3-.6-1.3-1.3V338c0-.7.6-1.2 1.3-1.2z"/><path id="Path_1330" class="st179" d="M36.8 338l-6.5 4.4-6.5-4.4"/></g><g id="Icon_feather-bell" transform="translate(39.203 3.88)"><path id="Path_1331" class="st179" d="M22.2 339.6c0-2.2-1.8-4-4-4s-4 1.8-4 4c0 4.7-2 6-2 6h12s-2-1.3-2-6"/><path id="Path_1332" class="st179" d="M19.4 348.3c-.4.6-1.2.9-1.8.5-.2-.1-.4-.3-.5-.5"/></g><g id="zoho_logo_cliq_chat_1_"><path d="M77.6 351.7c-.1 0-.1 0-.2-.1-.2-.1-.2-.3-.1-.5l1.6-2.5c.1-.1.2-.2.3-.2h3.5c.3 0 .6-.3.6-.6v-6.5c0-.3-.3-.6-.6-.6H79c-.2 0-.4-.2-.4-.4s.2-.4.4-.4h3.7c.7 0 1.3.6 1.3 1.3v6.5c0 .7-.6 1.3-1.3 1.3h-3.3l-1.5 2.4c-.1.3-.2.3-.3.3zm-1.6-2.5h-2.6c-.7 0-1.3-.6-1.3-1.3v-6.5c0-.7.6-1.3 1.3-1.3h3.3c.2 0 .4.2.4.4s-.2.4-.4.4h-3.3c-.3 0-.6.3-.6.6v6.5c0 .3.3.6.6.6H76c.2 0 .4.2.4.4-.1 0-.2.2-.4.2z" fill="#226db4"/><circle class="st181" cx="80.6" cy="344.7" r=".6"/><circle class="st181" cx="78" cy="344.7" r=".6"/><circle class="st181" cx="75.5" cy="344.7" r=".6"/></g><g id="Icon_feather-mail_1_" transform="translate(6.666 3.775)"><path id="Path_1329_1_" class="st174" d="M107.1 335.8h10.4c.7 0 1.3.6 1.3 1.3v7.5c0 .7-.6 1.2-1.3 1.3h-10.4c-.7 0-1.3-.6-1.3-1.3V337c0-.7.6-1.2 1.3-1.2z"/><path id="Path_1330_1_" class="st174" d="M118.8 337l-6.5 4.4-6.5-4.4"/></g><g id="Icon_feather-bell_1_" transform="translate(39.203 3.88)"><path id="Path_1331_1_" class="st174" d="M104.2 338.6c0-2.2-1.8-4-4-4s-4 1.8-4 4c0 4.7-2 6-2 6h12s-2-1.3-2-6"/><path id="Path_1332_1_" class="st174" d="M101.4 347.3c-.4.6-1.2.9-1.8.5-.2-.1-.4-.3-.5-.5"/></g><g id="zoho_logo_cliq_chat_2_"><path d="M159.6 350.7c-.1 0-.1 0-.2-.1-.2-.1-.2-.3-.1-.5l1.6-2.5c.1-.1.2-.2.3-.2h3.5c.3 0 .6-.3.6-.6v-6.5c0-.3-.3-.6-.6-.6H161c-.2 0-.4-.2-.4-.4s.2-.4.4-.4h3.7c.7 0 1.3.6 1.3 1.3v6.5c0 .7-.6 1.3-1.3 1.3h-3.3l-1.5 2.4c-.1.3-.2.3-.3.3zm-1.6-2.5h-2.6c-.7 0-1.3-.6-1.3-1.3v-6.5c0-.7.6-1.3 1.3-1.3h3.3c.2 0 .4.2.4.4s-.2.4-.4.4h-3.3c-.3 0-.6.3-.6.6v6.5c0 .3.3.6.6.6h2.6c.2 0 .4.2.4.4-.1 0-.2.2-.4.2z"/><circle cx="162.6" cy="343.7" r=".6"/><circle cx="160" cy="343.7" r=".6"/><circle cx="157.5" cy="343.7" r=".6"/></g><g><path d="M176.5 345.6c0 .7-.6 1.3-1.3 1.3s-1.3-.6-1.3-1.3.6-1.3 1.3-1.3h1.3v1.3zM177.2 345.6c0-.7.6-1.3 1.3-1.3s1.3.6 1.3 1.3v3.2c0 .7-.6 1.3-1.3 1.3s-1.3-.6-1.3-1.3v-3.2zM178.4 340.5c-.7 0-1.3-.6-1.3-1.3s.6-1.3 1.3-1.3 1.3.6 1.3 1.3v1.3h-1.3zM178.4 341.2c.7 0 1.3.6 1.3 1.3 0 .7-.6 1.3-1.3 1.3h-3.2c-.7 0-1.3-.6-1.3-1.3 0-.7.6-1.3 1.3-1.3h3.2z"/><g><path d="M183.5 342.4c0-.7.6-1.3 1.3-1.3s1.3.6 1.3 1.3c0 .7-.6 1.3-1.3 1.3h-1.3v-1.3zM182.8 342.4c0 .7-.6 1.3-1.3 1.3s-1.3-.6-1.3-1.3v-3.2c0-.7.6-1.3 1.3-1.3s1.3.6 1.3 1.3v3.2z"/></g><g><path d="M181.6 347.5c.7 0 1.3.6 1.3 1.3 0 .7-.6 1.3-1.3 1.3s-1.3-.6-1.3-1.3v-1.3h1.3zM181.6 346.8c-.7 0-1.3-.6-1.3-1.3s.6-1.3 1.3-1.3h3.2c.7 0 1.3.6 1.3 1.3s-.6 1.3-1.3 1.3h-3.2z"/></g></g><g><path class="st182" d="M94.5 347.6c0 .7-.6 1.3-1.3 1.3-.7 0-1.3-.6-1.3-1.3 0-.7.6-1.3 1.3-1.3h1.3v1.3zM95.2 347.6c0-.7.6-1.3 1.3-1.3s1.3.6 1.3 1.3v3.2c0 .7-.6 1.3-1.3 1.3s-1.3-.6-1.3-1.3v-3.2z"/><path class="st183" d="M96.4 342.5c-.7 0-1.3-.6-1.3-1.3 0-.7.6-1.3 1.3-1.3s1.3.6 1.3 1.3v1.3h-1.3zM96.4 343.2c.7 0 1.3.6 1.3 1.3s-.6 1.3-1.3 1.3h-3.2c-.7 0-1.3-.6-1.3-1.3s.6-1.3 1.3-1.3h3.2z"/><g><path class="st184" d="M101.5 344.4c0-.7.6-1.3 1.3-1.3.7 0 1.3.6 1.3 1.3s-.6 1.3-1.3 1.3h-1.3v-1.3zM100.8 344.4c0 .7-.6 1.3-1.3 1.3s-1.3-.6-1.3-1.3v-3.2c0-.7.6-1.3 1.3-1.3s1.3.6 1.3 1.3v3.2z"/></g><g><path class="st185" d="M99.6 349.5c.7 0 1.3.6 1.3 1.3s-.6 1.3-1.3 1.3-1.3-.6-1.3-1.3v-1.3h1.3zM99.6 348.8c-.7 0-1.3-.6-1.3-1.3 0-.7.6-1.3 1.3-1.3h3.2c.7 0 1.3.6 1.3 1.3 0 .7-.6 1.3-1.3 1.3h-3.2z"/></g></g><path id="Path_1494" d="M293.1 339.4l3.6-5.5 3.5 3.9 3.7-7.1" fill="none" stroke="#000"/><circle id="Ellipse_504" cx="303.5" cy="331.4" r="1.5"/><circle id="Ellipse_505" cx="300.5" cy="337.4" r="1.5"/><circle id="Ellipse_506" cx="296.5" cy="333.4" r="1.5"/><circle id="Ellipse_507" cx="293.5" cy="338.4" r="1.5"/><path id="Path_30" class="st187" d="M322.2 329.3c-1-1-2.7-1-3.7 0l-6.9 6.9c-.1.1-.1.1-.1.2l-.5 3.8c0 .1 0 .2.1.3.1.1.2.1.2.1l3.7-.4c.2 0 .3-.2.3-.4s-.2-.3-.4-.3l-3.2.3.4-2.6 2.8 2.8c.1.1.2.1.2.1.1 0 .2 0 .2-.1l6.9-6.9c1-1.1 1-2.8 0-3.8zm-3.6.8l-6.3 6.3 6.3-6.3zm-3.5 9l6.3-6.3-6.3 6.3zm6.7-6.7l-2.8-2.8c.8-.7 2.1-.6 2.8.3.6.7.6 1.8 0 2.5z"/><g><path id="Path_57" class="st188" d="M364.6 334c.3.3.4.8.4 1.2 0 .8-.7 1.5-1.5 1.5h-2.2c0 .1 0 .1.1.2 0 .1.1.1.1.2s.1.1.1.1c.1.2.2.3.2.4.1.2.1.3.2.5s.1.4.1.6v.7c0 .1-.1.3-.1.4-.1.1-.1.2-.2.4l-.3.3c-.1.1-.3.2-.5.2-.2.1-.4.1-.7.1-.1 0-.3-.1-.4-.2s-.2-.3-.3-.4c-.1-.1-.1-.3-.2-.4 0-.1-.1-.3-.1-.5s-.1-.4-.1-.5-.1-.3-.1-.4c-.1-.1-.1-.3-.2-.4-.3-.3-.6-.6-.8-1-.3-.3-.5-.7-.8-1s-.5-.5-.6-.5-.3-.1-.3-.2c-.1-.1-.1-.2-.1-.3v-5.1c0-.1.1-.3.2-.4s.2-.2.4-.2c.4-.1.9-.2 1.3-.4.4-.1.7-.2 1-.3s.6-.1 1-.2.8-.1 1.2-.1h1c.6 0 1.2.2 1.6.6.3.4.5.9.4 1.5.2.2.4.5.4.8.1.3.1.6 0 .9.2.3.4.7.3 1.1-.4.4-.5.6-.5.8z"/><path id="Path_58" class="st188" d="M355 335.7h-2.3c-.1 0-.3-.1-.4-.2s-.2-.2-.2-.4V330c0-.1.1-.3.2-.4s.2-.2.4-.2h2.3c.3 0 .5.2.5.5v5.1c0 .5-.2.7-.5.7z"/></g><g><path id="Path_57_1_" class="st189" d="M343.1 336c.3-.3.4-.8.4-1.2 0-.8-.7-1.5-1.5-1.5h-2.2c0-.1 0-.1.1-.2 0-.1.1-.1.1-.2s.1-.1.1-.1c.1-.2.2-.3.2-.4.1-.2.1-.3.2-.5s.1-.4.1-.6v-.3-.4c0-.1-.1-.3-.1-.4-.1-.1-.1-.2-.2-.4l-.3-.3c-.1-.1-.3-.2-.5-.2-.2-.1-.4-.1-.7-.1-.1 0-.3.1-.4.2s-.2.3-.3.4c-.1.1-.1.3-.2.4 0 .1-.1.3-.1.5s-.1.4-.1.5-.1.3-.1.4c-.1.1-.1.3-.2.4-.3.3-.6.6-.8 1-.3.3-.5.7-.8 1s-.5.5-.6.5-.3.1-.3.2c-.1.1-.1.2-.1.3v5.1c0 .1.1.3.2.4s.2.2.4.2c.4.1.9.2 1.3.4.4.1.7.2 1 .3s.6.1 1 .2.8.1 1.2.1h1c.6 0 1.2-.2 1.6-.6.3-.4.5-.9.4-1.4.2-.2.4-.5.4-.8.1-.3.1-.6 0-.9.2-.3.4-.7.3-1.1-.4-.5-.4-.7-.5-.9z"/><path id="Path_58_1_" class="st189" d="M333.6 334.3h-2.3c-.1 0-.3.1-.4.2s-.2.2-.2.4v5.1c0 .1.1.3.2.4s.2.2.4.2h2.3c.3 0 .5-.2.5-.5V335c0-.5-.3-.7-.5-.7z"/></g><g><path id="Path_57_2_" class="st6" d="M385 335.5c.3-.3.4-.8.4-1.2 0-.8-.7-1.5-1.5-1.5h-2.2c0-.1 0-.1.1-.2 0-.1.1-.1.1-.2s.1-.1.1-.1c.1-.2.2-.3.2-.4.1-.2.1-.3.2-.5s.1-.4.1-.6v-.3-.4c0-.1-.1-.3-.1-.4-.1-.1-.1-.2-.2-.4l-.3-.3c-.1-.1-.3-.2-.5-.2-.2-.1-.4-.1-.7-.1-.1 0-.3.1-.4.2s-.2.3-.3.4c-.1.1-.1.3-.2.4 0 .1-.1.3-.1.5s-.1.4-.1.5-.1.3-.1.4c-.1.1-.1.3-.2.4-.3.3-.6.6-.8 1-.3.3-.5.7-.8 1s-.5.5-.6.5-.3.1-.3.2c-.1.1-.1.2-.1.3v5.1c0 .1.1.3.2.4s.2.2.4.2c.4.1.9.2 1.3.4.4.1.7.2 1 .3s.6.1 1 .2.8.1 1.2.1h1c.6 0 1.2-.2 1.6-.6.3-.4.5-.9.4-1.4.2-.2.4-.5.4-.8.1-.3.1-.6 0-.9.2-.3.4-.7.3-1.1-.4-.5-.4-.7-.5-.9z"/><path id="Path_58_2_" class="st6" d="M375.4 333.8h-2.3c-.1 0-.3.1-.4.2s-.2.2-.2.4v5.1c0 .1.1.3.2.4s.2.2.4.2h2.3c.3 0 .5-.2.5-.5v-5.1c.1-.4-.2-.7-.5-.7z"/></g><g><path id="Path_57_5_" class="st6" d="M404.4 333.8c.3.3.4.8.4 1.2 0 .8-.7 1.5-1.5 1.5h-2.2c0 .1 0 .1.1.2 0 .1.1.1.1.2s.1.1.1.1c.1.2.2.3.2.4.1.2.1.3.2.5s.1.4.1.6v.7c0 .1-.1.3-.1.4-.1.1-.1.2-.2.4l-.3.3c-.1.1-.3.2-.5.2-.2.1-.4.1-.7.1-.1 0-.3-.1-.4-.2s-.2-.3-.3-.4c-.1-.1-.1-.3-.2-.4 0-.1-.1-.3-.1-.5s-.1-.4-.1-.5-.1-.3-.1-.4c-.1-.1-.1-.3-.2-.4-.3-.3-.6-.6-.8-1-.3-.3-.5-.7-.8-1s-.5-.5-.6-.5-.3-.1-.3-.2c-.1-.1-.1-.2-.1-.3v-5.1c0-.1.1-.3.2-.4s.2-.2.4-.2c.4-.1.9-.2 1.3-.4.4-.1.7-.2 1-.3.2-.1.6-.1 1-.2s.8-.1 1.2-.1h1c.6 0 1.2.2 1.6.6.3.4.5.9.4 1.4.2.2.4.5.4.8.1.3.1.6 0 .9.2.3.4.7.3 1.1-.4.5-.4.7-.5.9z"/><path id="Path_58_5_" class="st6" d="M394.9 335.5h-2.3c-.1 0-.3-.1-.4-.2s-.2-.2-.2-.4v-5.1c0-.1.1-.3.2-.4s.2-.2.4-.2h2.3c.3 0 .5.2.5.5v5.1c0 .4-.2.7-.5.7z"/></g><g><path class="st187" d="M66.1 368.1l.3-.3c.4.4 1 .4 1.4 0s.4-1 0-1.4l-1.4-1.4c-.4-.4-1-.4-1.4 0s-.4 1 0 1.4l-.4.4c-1.2-.9-2.7-1.5-4.3-1.7v-2h1.1c.5 0 .9-.4.9-.9v-.2c0-.5-.4-.9-.9-.9h-4.1c-.5 0-.9.4-.9.9v.1c0 .5.4.9.9.9h1.1v2c-1.6.2-3.1.8-4.3 1.7l-.4-.4c.4-.4.4-1 0-1.4s-1-.4-1.4 0l-1.4 1.4c-.4.4-.4 1 0 1.4s1 .4 1.4 0l.4.4c-1.4 1.6-2.2 3.6-2.2 5.9 0 5 4 9 9 9s9-4 9-9c-.2-2.2-1.1-4.3-2.4-5.9zM59.3 381c-3.9 0-7-3.1-7-7s3.1-7 7-7 7 3.1 7 7-3.2 7-7 7z"/><path id="Path_666" d="M60 369.1c-.3-.1-.7-.1-1-.1v5h1v-4.9z" fill="#1ec300"/></g><g id="Group_179" transform="translate(-6.717 -3.03)"><path class="st187" d="M101.8 371.2l.3-.3c.4.4 1 .4 1.4 0s.4-1 0-1.4l-1.4-1.4c-.4-.4-1-.4-1.4 0s-.4 1 0 1.4l-.4.4c-1.2-.9-2.7-1.5-4.3-1.7v-2h1.1c.5 0 .9-.4.9-.9v-.3c0-.5-.4-.9-.9-.9H93c-.5 0-.9.4-.9.9v.1c0 .5.4.9.9.9h1v2c-1.6.2-3.1.8-4.3 1.7l-.4-.4c.4-.4.4-1 0-1.4s-1-.4-1.4 0l-1.4 1.4c-.4.4-.4 1 0 1.4s1 .4 1.4 0l.4.4c-1.4 1.6-2.2 3.6-2.2 5.9 0 5 4 9 9 9s9-4 9-9c-.1-2.2-.9-4.3-2.3-5.8zM95 384c-3.9 0-7-3.1-7-7s3.1-7 7-7 7 3.1 7 7-3.1 7-7 7z"/><path id="Path_660" d="M94.7 372.1v5h5c0-2.8-2.2-5-5-5z" fill="#ffd800"/></g><g id="Group_178" transform="translate(-6.717 -3.03)"><path class="st187" d="M132.3 370.9l.3-.3c.4.4 1 .4 1.4 0s.4-1 0-1.4l-1.4-1.4c-.4-.4-1-.4-1.4 0s-.4 1 0 1.4l-.4.4c-1.2-.9-2.7-1.5-4.3-1.7v-2h1.1c.5 0 .9-.4.9-.9v-.1c0-.5-.4-.9-.9-.9h-4.1c-.5 0-.9.4-.9.9v.1c0 .5.4.9.9.9h1.1v2c-1.6.2-3.1.8-4.3 1.7l-.4-.4c.4-.4.4-1 0-1.4s-1-.4-1.4 0l-1.4 1.4c-.4.4-.4 1 0 1.4s1 .4 1.4 0l.4.4c-1.4 1.6-2.2 3.6-2.2 5.9 0 5 4 9 9 9s9-4 9-9c-.2-2.3-1-4.4-2.4-6zm-6.8 12.9c-3.9 0-7-3.1-7-7s3.1-7 7-7 7 3.1 7 7-3.1 7-7 7z"/><path id="Path_665" d="M125.3 371.8v10c2.8 0 5-2.2 5-5 0-2.7-2.3-5-5-5z" fill="#faa605"/></g><g id="Group_177_3_" transform="translate(-6.717 -3.03)"><path id="Path_656" d="M156.5 371.8c2.8 0 5 2.2 5 5s-2.2 5-5 5-5-2.2-5-5h5v-5z" fill="#f87439"/><path class="st187" d="M163.3 370.9l.3-.3c.4.4 1 .4 1.4 0s.4-1 0-1.4l-1.4-1.4c-.4-.4-1-.4-1.4 0s-.4 1 0 1.4l-.4.4c-1.2-.9-2.7-1.5-4.3-1.7v-2h1.1c.5 0 .9-.4.9-.9v-.1c0-.5-.4-.9-.9-.9h-4.1c-.5 0-.9.4-.9.9v.1c0 .5.4.9.9.9h1.1v2c-1.6.2-3.1.8-4.3 1.7l-.4-.4c.4-.4.4-1 0-1.4s-1-.4-1.4 0l-1.4 1.4c-.4.4-.4 1 0 1.4s1 .4 1.4 0l.4.4c-1.4 1.6-2.2 3.6-2.2 5.9 0 5 4 9 9 9s9-4 9-9c-.2-2.3-1-4.4-2.4-6zm-6.8 12.9c-3.9 0-7-3.1-7-7s3.1-7 7-7 7 3.1 7 7-3.1 7-7 7z"/></g><g id="Group_181" transform="translate(-6.717 -3.03)"><path class="st187" d="M194.1 371l.3-.3.1.1c.4.4 1 .4 1.4 0s.4-1 0-1.4l-1.4-1.4c-.4-.4-1-.4-1.4 0s-.4 1 0 1.4l-.4.4c-1.2-.9-2.7-1.5-4.3-1.6v-2h1.1c.5 0 .9-.4.9-.9v-.3c0-.5-.4-.9-.9-.9h-4.1c-.5 0-.9.4-.9.9v.1c0 .5.4.9.9.9h1.1v2c-1.6.2-3.1.8-4.3 1.7l-.4-.4c.4-.4.4-1 0-1.4s-1-.4-1.4 0l-1.4 1.4c-.4.4-.4 1 0 1.4s1 .4 1.4 0l.4.4c-1.4 1.6-2.2 3.6-2.2 5.9 0 5 4 9 9 9s9-4 9-9c-.2-2.3-1-4.4-2.5-6zm-6.7 13c-3.9 0-7-3.1-7-7s3.1-7 7-7 7 3.1 7 7-3.1 7-7 7z"/><circle id="Ellipse_12" cx="187.4" cy="377" r="5" fill="#eb504e"/></g><path id="Path_583" d="M213.2 374.6l-3.9-4c1-1.1 1.5-2.5 1.5-4-.1-3.3-2.8-5.9-6.1-5.9-3.3.1-5.9 2.8-5.9 6.1.1 3.3 2.7 5.9 6 5.9 1.4 0 2.8-.5 3.9-1.5l3.9 4c.1.1.2.1.4.1.1 0 .3 0 .4-.1 0-.2 0-.4-.2-.6zm-8.4-2.8c-2.8 0-5.1-2.3-5.1-5.1v-.1c0-2.8 2.2-5.1 5.1-5.2 2.8 0 5.1 2.3 5.1 5.1v.1c.1 2.8-2.1 5.1-4.9 5.2h-.2z"/><g><path id="Path_57_3_" class="st195" d="M16.8 369.4c.3-.3.4-.8.4-1.2 0-.8-.7-1.5-1.5-1.5h-2.2c0-.1 0-.1.1-.2 0-.1.1-.1.1-.2s.1-.1.1-.1c.1-.2.2-.3.2-.4.1-.2.1-.3.2-.5s.1-.4.1-.6v-.3-.4c0-.1-.1-.3-.1-.4-.1-.1-.1-.2-.2-.4l-.3-.3c-.1-.1-.3-.2-.5-.2-.2-.1-.4-.1-.7-.1-.1 0-.3.1-.4.2-.1.1-.2.3-.3.4s-.1.3-.2.4c0 .1-.1.3-.1.5s-.1.4-.1.5-.1.3-.1.4c-.1.1-.1.3-.2.4-.3.3-.6.6-.8 1-.3.3-.5.7-.8 1s-.5.5-.6.5-.3.1-.3.2c-.1.1-.1.2-.1.3v5.1c0 .1.1.3.2.4.1.1.2.2.4.2.4.1.9.2 1.3.4.4.1.7.2 1 .3.2.1.6.1 1 .2s.8.1 1.2.1h1c.6 0 1.2-.2 1.6-.6.3-.4.5-.9.4-1.5.2-.2.4-.5.4-.8.1-.3.1-.6 0-.9.2-.3.4-.7.3-1.1-.4-.4-.5-.6-.5-.8z"/><path id="Path_58_3_" class="st195" d="M7.2 367.7H4.9c-.1 0-.3.1-.4.2s-.2.2-.2.4v5.1c0 .1.1.3.2.4s.2.2.4.2h2.3c.3 0 .5-.2.5-.5v-5.1c0-.5-.2-.7-.5-.7z"/></g><g><path id="Path_57_4_" class="st196" d="M38.8 367.7c.3.3.4.8.4 1.2 0 .8-.7 1.5-1.5 1.5h-2.2c0 .1 0 .1.1.2 0 .1.1.1.1.2s.1.1.1.1c.1.2.2.3.2.4.1.2.1.3.2.5s.1.4.1.6v.7c0 .1-.1.3-.1.4-.1.1-.1.2-.2.4l-.3.3c-.1.1-.3.2-.5.2-.2.1-.4.1-.7.1-.1 0-.3-.1-.4-.2-.1-.1-.2-.3-.3-.4s-.1-.3-.2-.4c0-.1-.1-.3-.1-.5s-.1-.4-.1-.5-.1-.3-.1-.4c-.1-.1-.1-.3-.2-.4-.3-.3-.6-.6-.8-1-.3-.3-.5-.7-.8-1s-.5-.5-.6-.5-.3-.1-.3-.2c-.1-.1-.1-.2-.1-.3v-5.1c0-.1.1-.3.2-.4s.2-.2.4-.2c.4-.1.9-.2 1.3-.4.4-.1.7-.2 1-.3s.6-.1 1-.2.8-.1 1.2-.1h1c.6 0 1.2.2 1.6.6.3.4.5.9.4 1.5.2.2.4.5.4.8.1.3.1.6 0 .9.2.3.4.7.3 1.1-.3.5-.4.7-.5.8z"/><path id="Path_58_4_" class="st196" d="M29.3 369.5H27c-.1 0-.3-.1-.4-.2s-.2-.2-.2-.4v-5.1c0-.1.1-.3.2-.4s.2-.2.4-.2h2.3c.3 0 .5.2.5.5v5.1c0 .4-.2.6-.5.7z"/></g><path class="st10" d="M224.6 372.2V364c4.7-.2 7.4-3 7.4-3s2.7 2.9 7.4 3v8.2c-1 4.1-7.4 6.9-7.4 6.9s-6.4-2.8-7.4-6.9z"/><path class="st10" d="M227.9 370.7l2.3 2.4 5.9-6.2"/><path class="st197" d="M249.6 372.2V364c4.7-.2 7.4-3 7.4-3s2.7 2.9 7.4 3v8.2c-1 4.1-7.4 6.9-7.4 6.9s-6.4-2.8-7.4-6.9z"/><path class="st197" d="M252.9 370.7l2.3 2.4 5.9-6.2"/><path id="Path_45_3_" d="M268.5 331l-3.5-4h7l-3.5 4z" fill="#66be71"/><path id="Path_45_2_" class="st6" d="M283.6 330.9l-3.1-3.9h6l-2.9 3.9z"/><path id="Path_45_1_" class="st188" d="M233.5 332l-3.5-4h7l-3.5 4z"/><circle id="Ellipse_1" class="st199" cx="246" cy="330" r="1"/><circle id="Ellipse_2_1_" class="st199" cx="251" cy="330" r="1"/><circle id="Ellipse_3" class="st199" cx="256" cy="330" r="1"/><g id="Group_1044" transform="translate(.089 41.589)"><circle id="Ellipse_454" class="st200" cx="298.9" cy="314.4" r="8"/><path id="Path_1252" class="st54" d="M295.5 314.7l2.5 2.3 4.8-4.9"/></g><g id="Group_1046" transform="translate(.089 41.589)"><circle id="Ellipse_454-2" class="st200" cx="298.9" cy="314.4" r="8"/><path id="Path_1252-2" class="st54" d="M295.5 314.7l2.5 2.3 4.8-4.9"/></g><path id="Icon_awesome-bell" class="st201" d="M278.5 374.8c1 0 1.8-.8 1.8-1.8h-3.7c.1.9.9 1.8 1.9 1.8zm6.2-4.3c-.6-.6-1.6-1.5-1.6-4.4 0-2.2-1.5-4.1-3.7-4.5v-.6c0-.5-.4-.9-.9-1-.5 0-.9.4-1 .9v.7c-2.1.4-3.7 2.3-3.7 4.5 0 2.9-1 3.8-1.6 4.4-.2.2-.2.4-.2.6 0 .5.4.9.9.9H284c.5 0 .9-.4.9-.9.1-.3 0-.5-.2-.6z"/><path id="Icon_awesome-bell_1_" d="M369.5 363.8c1 0 1.8-.8 1.8-1.8h-3.7c.1.9.9 1.8 1.9 1.8zm6.2-4.3c-.6-.6-1.6-1.5-1.6-4.4 0-2.2-1.5-4.1-3.7-4.5v-.6c0-.5-.4-.9-.9-1-.5 0-.9.4-1 .9v.7c-2.1.4-3.7 2.3-3.7 4.5 0 2.9-1 3.8-1.6 4.4-.2.2-.2.4-.2.6 0 .5.4.9.9.9H375c.5 0 .9-.4.9-.9.1-.3 0-.5-.2-.6z"/><g id="Group_1206" transform="translate(-362 -236.5)"><circle id="Ellipse_456" class="st201" cx="685" cy="592.5" r="8"/><path id="Path_1257" class="st54" d="M684.3 588.7v4.5h4.7"/></g><g id="Group_1206_1_" transform="translate(-362 -236.5)"><circle id="Ellipse_456_1_" cx="709" cy="592.5" r="8"/><path id="Path_1257_1_" class="st54" d="M708.3 588.7v4.5h4.7"/></g><g id="left_navi_prev" transform="rotate(-90 5.154 -5.646)"><path id="Path_1246" d="M-372 290.7l-3-3 3-3" fill="none" stroke="#2c7bd0" stroke-width="1.2" stroke-linecap="round" stroke-linejoin="round"/></g><g id="info_black_i" transform="translate(0 .958)"><circle id="Ellipse_49" cx="315" cy="375" r="6"/><path id="Line_28" class="st69" d="M315 375v4"/><path id="Line_29" class="st69" d="M315 372v2"/></g><g id="Group_1621" transform="translate(.089 -.003)"><circle id="Ellipse_454_1_" cx="333.4" cy="376.5" r="5.5" fill="#70d070"/><path id="Path_1252_1_" class="st47" d="M331.1 376.6l1.7 1.6 3.3-3.4"/></g><path id="Icon_awesome-bell_2_" d="M388.5 363.8c1 0 1.8-.8 1.8-1.8h-3.7c.1.9.9 1.8 1.9 1.8zm6.2-4.4c-.6-.6-1.6-1.5-1.6-4.4 0-2.2-1.5-4.1-3.7-4.5v-.6c0-.5-.4-.9-.9-1-.5 0-.9.4-1 .9v.7c-2.1.4-3.7 2.3-3.7 4.5 0 2.9-1 3.8-1.6 4.4-.2.2-.2.4-.2.6 0 .5.4.9.9.9H394c.5 0 .9-.4.9-.9.1-.2 0-.4-.2-.6z" opacity=".7" fill="#3788e0"/><path id="Path_1213" d="M394.2 348.8l-11.3 14.6" fill="none" stroke="#eff7ff" stroke-width="2"/><path id="Path_1214" d="M395.5 349.9l-11.6 15" fill="none" stroke="#6da8e9"/><g id="Group_1406" transform="translate(-126.011 -304.081)" fill="none" stroke="#267edf" stroke-linecap="round" stroke-miterlimit="10"><path id="Line_52" stroke-width=".959" d="M252.7 611.6h15.4"/><path id="Line_53" stroke-width=".978" d="M252.7 619.6h16"/><path id="Path_1326" d="M265.3 608.7l7 7-7 7" stroke-width="1.3" stroke-linejoin="round"/></g><path fill="none" stroke="#fff" stroke-width="1.75" stroke-linecap="round" stroke-linejoin="round" stroke-miterlimit="10" d="M6.2 123.9l2.1 2.2 4.3-4.4"/><path class="st10" d="M91.6 325.5h13v7h-13v-7zm-2-3h17v3h-17v-3zm8 0v10m0-10s1.4-5 3.9-4.5c4.6 1-.9 4.5-.9 4.5m-3 0s-.6-5-3.1-4.5c-4.6 1 .1 4.5.1 4.5"/></svg>